<svg width="80" height="80" viewBox="0 0 80 80" fill="none" xmlns="http://www.w3.org/2000/svg">
<g clip-path="url(#clip0_471_1268)">
<path d="M13.3334 63.3334C13.3334 65.1015 14.0357 66.7972 15.286 68.0475C16.5362 69.2977 18.2319 70.0001 20 70.0001C21.7681 70.0001 23.4638 69.2977 24.7141 68.0475C25.9643 66.7972 26.6667 65.1015 26.6667 63.3334C26.6667 61.5653 25.9643 59.8696 24.7141 58.6194C23.4638 57.3691 21.7681 56.6667 20 56.6667C18.2319 56.6667 16.5362 57.3691 15.286 58.6194C14.0357 59.8696 13.3334 61.5653 13.3334 63.3334Z" stroke="white" stroke-width="4" stroke-linecap="round" stroke-linejoin="round"/>
<path d="M50 63.3334C50 65.1015 50.7024 66.7972 51.9527 68.0475C53.2029 69.2977 54.8986 70.0001 56.6667 70.0001C58.4348 70.0001 60.1305 69.2977 61.3807 68.0475C62.631 66.7972 63.3334 65.1015 63.3334 63.3334C63.3334 61.5653 62.631 59.8696 61.3807 58.6194C60.1305 57.3691 58.4348 56.6667 56.6667 56.6667C54.8986 56.6667 53.2029 57.3691 51.9527 58.6194C50.7024 59.8696 50 61.5653 50 63.3334Z" stroke="white" stroke-width="4" stroke-linecap="round" stroke-linejoin="round"/>
<path d="M56.6667 56.6667H20V10.0001H13.3334" stroke="white" stroke-width="4" stroke-linecap="round" stroke-linejoin="round"/>
<path d="M20 16.6667L66.6667 20.0001L63.3334 43.3334H20" stroke="white" stroke-width="4" stroke-linecap="round" stroke-linejoin="round"/>
</g>
<defs>
<clipPath id="clip0_471_1268">
<rect width="80" height="80" fill="white"/>
</clipPath>
</defs>
</svg>
