<svg width="53" height="52" viewBox="0 0 53 52" fill="none" xmlns="http://www.w3.org/2000/svg">
<g clip-path="url(#clip0_614_10713)">
<path d="M41.3335 27.6668C41.3335 26.5176 40.8769 25.4154 40.0643 24.6027C39.2516 23.79 38.1494 23.3335 37.0001 23.3335H15.3335C14.1842 23.3335 13.082 23.79 12.2693 24.6027C11.4567 25.4154 11.0001 26.5176 11.0001 27.6668V40.6668C11.0001 41.8161 11.4567 42.9183 12.2693 43.731C13.082 44.5436 14.1842 45.0002 15.3335 45.0002L24.6095 45.0002" stroke="white" stroke-width="4" stroke-linecap="round" stroke-linejoin="round"/>
<path d="M17.5001 23.3333V14.6667C17.5001 12.3681 18.4132 10.1637 20.0385 8.53841C21.6638 6.91309 23.8682 6 26.1668 6C28.4653 6 30.6697 6.91309 32.295 8.53841C33.9204 10.1637 34.8335 12.3681 34.8335 14.6667V23.3333" stroke="white" stroke-width="4" stroke-linecap="round" stroke-linejoin="round"/>
<path d="M32.6661 34.1667H32.6878" stroke="white" stroke-width="4" stroke-linecap="round" stroke-linejoin="round"/>
<path d="M26.1876 34.1667H26.2093" stroke="white" stroke-width="4" stroke-linecap="round" stroke-linejoin="round"/>
<path d="M19.7091 34.1667H19.7308" stroke="white" stroke-width="4" stroke-linecap="round" stroke-linejoin="round"/>
<path d="M30.6095 46.5H34.0019L42.9069 37.595C43.1297 37.3722 43.3064 37.1078 43.4269 36.8168C43.5475 36.5257 43.6095 36.2138 43.6095 35.8988C43.6095 35.5838 43.5475 35.2718 43.4269 34.9808C43.3064 34.6898 43.1297 34.4253 42.9069 34.2026C42.6842 33.9798 42.4197 33.8031 42.1287 33.6826C41.8377 33.562 41.5257 33.5 41.2107 33.5C40.8957 33.5 40.5838 33.562 40.2927 33.6826C40.0017 33.8031 39.7373 33.9798 39.5145 34.2026L30.6095 43.1076V46.5Z" stroke="white" stroke-width="3" stroke-linecap="round" stroke-linejoin="round"/>
<path d="M38.6095 35.5L41.6095 38.5" stroke="white" stroke-width="3" stroke-linecap="round" stroke-linejoin="round"/>
</g>
<defs>
<clipPath id="clip0_614_10713">
<rect width="52" height="52" fill="white" transform="translate(0.556763)"/>
</clipPath>
</defs>
</svg>
