<svg width="80" height="80" viewBox="0 0 80 80" fill="none" xmlns="http://www.w3.org/2000/svg">
<g clip-path="url(#clip0_1185_3111)">
<path d="M63.3333 53.5V43.3334C63.3333 41.5653 62.6309 39.8696 61.3807 38.6194C60.1304 37.3691 58.4347 36.6667 56.6666 36.6667H23.3333C21.5652 36.6667 19.8695 37.3691 18.6192 38.6194C17.369 39.8696 16.6666 41.5653 16.6666 43.3334V63.3334C16.6666 65.1015 17.369 66.7972 18.6192 68.0475C19.8695 69.2977 21.5652 70.0001 23.3333 70.0001H48.0001" stroke="#FF460F" stroke-width="5" stroke-linecap="round" stroke-linejoin="round"/>
<path d="M26.6666 36.6667V23.3333C26.6666 19.7971 28.0714 16.4057 30.5719 13.9052C33.0724 11.4048 36.4637 10 40 10C43.5362 10 46.9276 11.4048 49.428 13.9052C51.9285 16.4057 53.3333 19.7971 53.3333 23.3333V36.6667" stroke="#FF460F" stroke-width="5" stroke-linecap="round" stroke-linejoin="round"/>
<path d="M50 53.3333H50.0333" stroke="#FF460F" stroke-width="5" stroke-linecap="round" stroke-linejoin="round"/>
<path d="M40.0333 53.3333H40.0667" stroke="#FF460F" stroke-width="5" stroke-linecap="round" stroke-linejoin="round"/>
<path d="M30.0667 53.3333H30.1" stroke="#FF460F" stroke-width="5" stroke-linecap="round" stroke-linejoin="round"/>
<path d="M53 64L58 69L68 59" stroke="#FF460F" stroke-width="5" stroke-linecap="round" stroke-linejoin="round"/>
</g>
<defs>
<clipPath id="clip0_1185_3111">
<rect width="80" height="80" fill="white"/>
</clipPath>
</defs>
</svg>
