<svg width="197" height="60" viewBox="0 0 197 60" fill="none" xmlns="http://www.w3.org/2000/svg">
<path d="M0 10C0 4.47715 4.47715 0 10 0H187C192.523 0 197 4.47715 197 10V60H0V10Z" fill="#FF460F"/>
<path d="M55.3111 28.1662H53.3168C53.2401 27.7401 53.0973 27.3651 52.8885 27.0412C52.6797 26.7173 52.424 26.4425 52.1214 26.2166C51.8189 25.9908 51.4801 25.8203 51.1051 25.7053C50.7344 25.5902 50.3402 25.5327 49.9226 25.5327C49.1683 25.5327 48.4929 25.7223 47.8963 26.1016C47.304 26.4808 46.8352 27.0369 46.4901 27.7699C46.1491 28.5028 45.9787 29.3977 45.9787 30.4545C45.9787 31.5199 46.1491 32.419 46.4901 33.152C46.8352 33.8849 47.3061 34.4389 47.9027 34.8139C48.4993 35.1889 49.1705 35.3764 49.9162 35.3764C50.3295 35.3764 50.7216 35.321 51.0923 35.2102C51.4673 35.0952 51.8061 34.9268 52.1087 34.7053C52.4112 34.4837 52.6669 34.2131 52.8757 33.8935C53.0888 33.5696 53.2358 33.1989 53.3168 32.7812L55.3111 32.7876C55.2045 33.4311 54.9979 34.0234 54.6911 34.5646C54.3885 35.1016 53.9986 35.5661 53.5213 35.9581C53.0483 36.3459 52.5071 36.6463 51.8977 36.8594C51.2884 37.0724 50.6236 37.179 49.9034 37.179C48.7699 37.179 47.7599 36.9105 46.8736 36.3736C45.9872 35.8324 45.2884 35.0589 44.777 34.0533C44.2699 33.0476 44.0163 31.848 44.0163 30.4545C44.0163 29.0568 44.272 27.8572 44.7834 26.8558C45.2947 25.8501 45.9936 25.0788 46.88 24.5419C47.7663 24.0007 48.7741 23.7301 49.9034 23.7301C50.598 23.7301 51.2457 23.8303 51.8466 24.0305C52.4517 24.2266 52.995 24.5163 53.4766 24.8999C53.9581 25.2791 54.3565 25.7436 54.6719 26.2933C54.9872 26.8388 55.2003 27.4631 55.3111 28.1662ZM59.4324 31.1705V37H57.5211V23.9091H59.4068V28.7798H59.5282C59.7583 28.2514 60.1099 27.8317 60.5829 27.5206C61.0559 27.2095 61.6738 27.054 62.4366 27.054C63.1099 27.054 63.698 27.1925 64.2008 27.4695C64.7079 27.7464 65.1 28.1598 65.377 28.7095C65.6582 29.255 65.7988 29.9368 65.7988 30.755V37H63.8876V30.9851C63.8876 30.2649 63.7022 29.7067 63.3315 29.3104C62.9608 28.9098 62.4451 28.7095 61.7846 28.7095C61.3329 28.7095 60.9281 28.8054 60.5701 28.9972C60.2164 29.1889 59.9373 29.4702 59.7328 29.8409C59.5325 30.2074 59.4324 30.6506 59.4324 31.1705ZM71.2065 37.2173C70.5843 37.2173 70.0218 37.1023 69.519 36.8722C69.0162 36.6378 68.6177 36.299 68.3237 35.8558C68.0339 35.4126 67.889 34.8693 67.889 34.2259C67.889 33.6719 67.9956 33.2159 68.2086 32.858C68.4217 32.5 68.7093 32.2166 69.0716 32.0078C69.4338 31.799 69.8386 31.6413 70.286 31.5348C70.7335 31.4283 71.1895 31.3473 71.6539 31.2919C72.242 31.2237 72.7193 31.1683 73.0858 31.1257C73.4522 31.0788 73.7186 31.0043 73.8848 30.902C74.051 30.7997 74.1341 30.6335 74.1341 30.4034V30.3587C74.1341 29.8004 73.9764 29.3679 73.661 29.0611C73.35 28.7543 72.8855 28.6009 72.2676 28.6009C71.6241 28.6009 71.117 28.7436 70.7463 29.0291C70.3798 29.3104 70.1262 29.6236 69.9856 29.9688L68.1895 29.5597C68.4025 28.9631 68.7136 28.4815 69.1227 28.1151C69.536 27.7443 70.0112 27.4759 70.5481 27.3097C71.085 27.1392 71.6497 27.054 72.242 27.054C72.6341 27.054 73.0495 27.1009 73.4885 27.1946C73.9316 27.2841 74.345 27.4503 74.7285 27.6932C75.1163 27.9361 75.4338 28.2834 75.6809 28.7351C75.9281 29.1825 76.0517 29.7642 76.0517 30.4801V37H74.1852V35.6577H74.1085C73.9849 35.9048 73.7995 36.1477 73.5524 36.3864C73.3052 36.625 72.9877 36.8232 72.6 36.9808C72.2122 37.1385 71.7477 37.2173 71.2065 37.2173ZM71.622 35.6832C72.1504 35.6832 72.6021 35.5788 72.9771 35.37C73.3564 35.1612 73.644 34.8885 73.84 34.5518C74.0403 34.2109 74.1404 33.8466 74.1404 33.4588V32.1932C74.0723 32.2614 73.9402 32.3253 73.7441 32.3849C73.5524 32.4403 73.3329 32.4893 73.0858 32.532C72.8386 32.5703 72.5978 32.6065 72.3635 32.6406C72.1291 32.6705 71.9331 32.696 71.7754 32.7173C71.4047 32.7642 71.0659 32.843 70.7591 32.9538C70.4565 33.0646 70.2136 33.2244 70.0304 33.4332C69.8514 33.6378 69.7619 33.9105 69.7619 34.2514C69.7619 34.7244 69.9366 35.0824 70.286 35.3253C70.6355 35.5639 71.0808 35.6832 71.622 35.6832ZM83.1804 27.1818V28.7159H77.8175V27.1818H83.1804ZM79.2557 24.8295H81.1669V34.1172C81.1669 34.4879 81.2223 34.767 81.3331 34.9545C81.4439 35.1378 81.5866 35.2635 81.7614 35.3317C81.9403 35.3956 82.1342 35.4276 82.343 35.4276C82.4964 35.4276 82.6307 35.4169 82.7457 35.3956C82.8608 35.3743 82.9503 35.3572 83.0142 35.3445L83.3594 36.9233C83.2486 36.9659 83.0909 37.0085 82.8864 37.0511C82.6818 37.098 82.4261 37.1236 82.1193 37.1278C81.6165 37.1364 81.1477 37.0469 80.7131 36.8594C80.2784 36.6719 79.9268 36.3821 79.6584 35.9901C79.3899 35.598 79.2557 35.1058 79.2557 34.5135V24.8295ZM92.1868 37L89.2976 27.1818H91.2727L93.1967 34.392H93.2926L95.223 27.1818H97.1982L99.1158 34.3601H99.2116L101.123 27.1818H103.098L100.215 37H98.2656L96.2713 29.9112H96.1243L94.13 37H92.1868ZM104.912 37V27.1818H106.823V37H104.912ZM105.877 25.6669C105.545 25.6669 105.259 25.5561 105.02 25.3345C104.786 25.1087 104.669 24.8402 104.669 24.5291C104.669 24.2138 104.786 23.9453 105.02 23.7237C105.259 23.4979 105.545 23.3849 105.877 23.3849C106.209 23.3849 106.493 23.4979 106.727 23.7237C106.966 23.9453 107.085 24.2138 107.085 24.5291C107.085 24.8402 106.966 25.1087 106.727 25.3345C106.493 25.5561 106.209 25.6669 105.877 25.6669ZM113.977 27.1818V28.7159H108.614V27.1818H113.977ZM110.053 24.8295H111.964V34.1172C111.964 34.4879 112.019 34.767 112.13 34.9545C112.241 35.1378 112.384 35.2635 112.558 35.3317C112.737 35.3956 112.931 35.4276 113.14 35.4276C113.293 35.4276 113.428 35.4169 113.543 35.3956C113.658 35.3743 113.747 35.3572 113.811 35.3445L114.156 36.9233C114.045 36.9659 113.888 37.0085 113.683 37.0511C113.479 37.098 113.223 37.1236 112.916 37.1278C112.413 37.1364 111.945 37.0469 111.51 36.8594C111.075 36.6719 110.724 36.3821 110.455 35.9901C110.187 35.598 110.053 35.1058 110.053 34.5135V24.8295ZM118.214 31.1705V37H116.302V23.9091H118.188V28.7798H118.309C118.54 28.2514 118.891 27.8317 119.364 27.5206C119.837 27.2095 120.455 27.054 121.218 27.054C121.891 27.054 122.479 27.1925 122.982 27.4695C123.489 27.7464 123.881 28.1598 124.158 28.7095C124.439 29.255 124.58 29.9368 124.58 30.755V37H122.669V30.9851C122.669 30.2649 122.483 29.7067 122.113 29.3104C121.742 28.9098 121.226 28.7095 120.566 28.7095C120.114 28.7095 119.709 28.8054 119.351 28.9972C118.998 29.1889 118.719 29.4702 118.514 29.8409C118.314 30.2074 118.214 30.6506 118.214 31.1705ZM140.466 23.9091H142.447V32.5192C142.447 33.4354 142.232 34.2472 141.802 34.9545C141.371 35.6577 140.766 36.2116 139.987 36.6165C139.207 37.017 138.293 37.2173 137.244 37.2173C136.2 37.2173 135.288 37.017 134.509 36.6165C133.729 36.2116 133.124 35.6577 132.693 34.9545C132.263 34.2472 132.048 33.4354 132.048 32.5192V23.9091H134.023V32.3594C134.023 32.9517 134.153 33.478 134.413 33.9382C134.677 34.3984 135.05 34.7607 135.531 35.0249C136.013 35.2848 136.584 35.4148 137.244 35.4148C137.909 35.4148 138.482 35.2848 138.964 35.0249C139.45 34.7607 139.82 34.3984 140.076 33.9382C140.336 33.478 140.466 32.9517 140.466 32.3594V23.9091ZM152.523 29.5788L150.791 29.8857C150.718 29.6641 150.603 29.4531 150.445 29.2528C150.292 29.0526 150.083 28.8885 149.819 28.7607C149.555 28.6328 149.225 28.5689 148.828 28.5689C148.287 28.5689 147.835 28.6903 147.473 28.9332C147.111 29.1719 146.93 29.4808 146.93 29.8601C146.93 30.1882 147.051 30.4524 147.294 30.6527C147.537 30.853 147.929 31.017 148.47 31.1449L150.03 31.5028C150.933 31.7116 151.607 32.0334 152.05 32.468C152.493 32.9027 152.715 33.4673 152.715 34.1619C152.715 34.75 152.544 35.2741 152.203 35.7344C151.867 36.1903 151.396 36.5483 150.791 36.8082C150.19 37.0682 149.493 37.1982 148.7 37.1982C147.601 37.1982 146.704 36.9638 146.009 36.495C145.315 36.022 144.889 35.3509 144.731 34.4815L146.578 34.2003C146.693 34.6818 146.93 35.0462 147.288 35.2933C147.646 35.5362 148.112 35.6577 148.688 35.6577C149.314 35.6577 149.815 35.5277 150.19 35.2678C150.565 35.0036 150.752 34.6818 150.752 34.3026C150.752 33.9957 150.637 33.7379 150.407 33.5291C150.181 33.3203 149.834 33.1626 149.365 33.0561L147.703 32.6918C146.787 32.483 146.11 32.1506 145.671 31.6946C145.236 31.2386 145.019 30.6612 145.019 29.9624C145.019 29.3828 145.181 28.8757 145.504 28.4411C145.828 28.0064 146.276 27.6676 146.847 27.4247C147.418 27.1776 148.072 27.054 148.809 27.054C149.87 27.054 150.705 27.2841 151.315 27.7443C151.924 28.2003 152.327 28.8118 152.523 29.5788Z" fill="white"/>
</svg>
