<svg width="674" height="736" viewBox="0 0 674 736" fill="none" xmlns="http://www.w3.org/2000/svg">
<path d="M608.921 167.478C609.842 167.214 610.652 166.658 611.229 165.892C611.805 165.126 612.117 164.193 612.117 163.234C612.117 162.275 611.805 161.342 611.229 160.576C610.652 159.811 609.842 159.254 608.921 158.991L336.572 1.72164C334.385 0.590337 331.958 0 329.496 0C327.035 0 324.608 0.590337 322.421 1.72164L41.0895 164.422C37.1915 166.714 37.1915 170.364 41.0895 172.91L160.486 241.826C162.67 242.917 165.078 243.485 167.519 243.485C169.96 243.485 172.368 242.917 174.552 241.826L322.421 156.275C324.608 155.143 327.035 154.553 329.496 154.553C331.958 154.553 334.385 155.143 336.572 156.275L478.509 238.347C480.681 239.477 483.094 240.068 485.542 240.068C487.991 240.068 490.403 239.477 492.575 238.347L608.921 167.478Z" fill="#49516B" fill-opacity="0.1"/>
<path d="M7.0333 232.488C3.13533 230.196 0 232.488 0 236.562V560.86C0.1327 563.307 0.838501 565.688 2.06034 567.811C3.28218 569.935 4.98577 571.74 7.0333 573.082L286.161 734.34C290.059 736.546 293.195 734.764 293.195 730.266V591.923C293.062 589.476 292.356 587.095 291.134 584.972C289.913 582.849 288.209 581.043 286.161 579.702L140.666 495.593C138.613 494.256 136.906 492.452 135.684 490.328C134.461 488.204 133.758 485.82 133.632 483.371V313.626C133.5 311.179 132.794 308.798 131.572 306.674C130.35 304.551 128.647 302.746 126.599 301.404L7.0333 232.488Z" fill="#49516B" fill-opacity="0.1"/>
<path d="M210 441.928C210.126 444.376 210.829 446.76 212.051 448.884C213.274 451.009 214.981 452.813 217.033 454.149L329.99 519.501C332.177 520.633 334.603 521.223 337.065 521.223C339.527 521.223 341.953 520.633 344.141 519.501L457.097 454.149C459.16 452.817 460.88 451.016 462.117 448.892C463.354 446.769 464.073 444.382 464.215 441.928V311.309C464.079 308.841 463.364 306.441 462.127 304.302C460.89 302.164 459.167 300.348 457.097 299.002L344.141 233.65C341.94 232.565 339.519 232 337.065 232C334.612 232 332.191 232.565 329.99 233.65L217.033 299.002C214.975 300.352 213.264 302.171 212.042 304.31C210.819 306.449 210.12 308.847 210 311.309V441.928Z" fill="#49516B" fill-opacity="0.1"/>
<path d="M376.085 730.187C376.085 734.685 379.22 736.468 383.118 734.261L666.059 570.627C668.093 569.27 669.786 567.462 671.006 565.341C672.226 563.221 672.94 560.847 673.093 558.405V222.988C673.093 218.49 669.957 216.708 666.144 218.999L546.409 291.82C544.362 293.203 542.663 295.041 541.443 297.19C540.223 299.34 539.515 301.743 539.376 304.211V481.086C539.25 483.534 538.547 485.918 537.324 488.043C536.102 490.167 534.395 491.971 532.342 493.308L383.033 579.623C380.984 580.983 379.281 582.804 378.059 584.941C376.838 587.078 376.133 589.471 376 591.93L376.085 730.187Z" fill="#49516B" fill-opacity="0.1"/>
</svg>
