<svg width="533" height="80" viewBox="0 0 533 80" fill="none" xmlns="http://www.w3.org/2000/svg">
<path d="M504.245 33.8957V30.4276H497.084V57.94H505.614V42.2685C505.582 41.5666 505.693 40.8655 505.939 40.2073C506.185 39.5491 506.561 38.9472 507.045 38.4378C507.526 37.9538 508.103 37.5744 508.738 37.3237C509.373 37.0729 510.053 36.9562 510.735 36.9808C511.424 36.944 512.113 37.055 512.755 37.3063C513.398 37.5576 513.979 37.9434 514.459 38.4378C515.395 39.4893 515.886 40.8626 515.829 42.2685V57.94H524.372V41.6597C524.372 38.1345 523.316 35.2707 521.203 33.068C520.13 31.9658 518.836 31.1019 517.406 30.5326C515.977 29.9633 514.443 29.7015 512.905 29.7641C511.241 29.7174 509.59 30.065 508.086 30.7783C506.582 31.4917 505.268 32.5505 504.252 33.8684M472.233 49.2868C471.016 47.854 470.348 46.0358 470.348 44.1564C470.348 42.2771 471.016 40.4589 472.233 39.0261C472.844 38.3535 473.593 37.8216 474.43 37.4672C475.267 37.1129 476.171 36.9446 477.08 36.9739C477.971 36.9465 478.858 37.1065 479.684 37.4435C480.509 37.7805 481.255 38.2871 481.872 38.9303C483.101 40.3854 483.776 42.2283 483.776 44.1325C483.776 46.0367 483.101 47.8796 481.872 49.3347C481.255 49.9779 480.509 50.4845 479.684 50.8215C478.858 51.1585 477.971 51.3185 477.08 51.2911C476.171 51.3204 475.267 51.1521 474.43 50.7978C473.593 50.4434 472.844 49.9115 472.233 49.2389M484.802 33.157C482.165 30.8012 478.718 29.5568 475.183 29.6843C471.647 29.8118 468.299 31.3014 465.839 33.841C463.322 36.6676 461.932 40.3188 461.932 44.1017C461.932 47.8846 463.322 51.5359 465.839 54.3624C467.09 55.7402 468.622 56.8337 470.332 57.5689C472.042 58.3041 473.89 58.6639 475.752 58.624C479.119 58.6601 482.366 57.3757 484.795 55.0465V57.94H491.792V30.4276H484.795L484.802 33.157ZM438.003 33.6563C435.981 31.0068 433.078 29.6843 429.294 29.6888C427.63 29.6422 425.979 29.9898 424.475 30.7031C422.971 31.4164 421.657 32.4753 420.641 33.7931V30.325H413.473V57.94H422.017V42.2685C421.951 40.8614 422.443 39.4851 423.386 38.4378C423.855 37.9528 424.422 37.5723 425.048 37.3213C425.674 37.0702 426.347 36.9541 427.021 36.9808C427.678 36.9453 428.335 37.055 428.944 37.3021C429.554 37.5492 430.101 37.9277 430.547 38.4104C431.439 39.4923 431.893 40.8687 431.821 42.2685V57.94H440.371V42.2685C440.335 41.5713 440.437 40.8738 440.672 40.2163C440.907 39.5588 441.27 38.9544 441.74 38.4378C442.215 37.9528 442.786 37.5726 443.417 37.3216C444.048 37.0707 444.725 36.9546 445.403 36.9808C446.051 36.9482 446.699 37.0595 447.299 37.3067C447.899 37.5539 448.437 37.9308 448.874 38.4104C449.766 39.4923 450.22 40.8687 450.147 42.2685V57.94H458.719V41.6597C458.719 38.0616 457.674 35.1795 455.583 33.0133C453.493 30.8472 450.736 29.7641 447.313 29.7641C445.564 29.704 443.823 30.0282 442.213 30.7137C440.603 31.3992 439.164 32.4294 437.996 33.7316M406.504 56.3941C407.495 55.7224 408.302 54.8132 408.851 53.7497C409.4 52.6863 409.673 51.5023 409.646 50.306C409.646 47.8845 408.961 46.0239 407.592 44.7174C405.78 43.1573 403.69 41.9529 401.431 41.1672C401.095 41.0167 400.644 40.8457 400.062 40.6404L398.816 40.1548C398.521 40.0453 398.172 39.9085 397.768 39.7375C397.453 39.6172 397.148 39.4708 396.858 39.2997C396.659 39.1697 396.447 39.0261 396.228 38.8619C396.034 38.7222 395.873 38.5426 395.755 38.3352C395.664 38.1476 395.618 37.9417 395.618 37.7332C395.619 37.4516 395.697 37.1755 395.843 36.9345C395.989 36.6935 396.198 36.4967 396.447 36.3651C397.099 35.9909 397.845 35.8105 398.597 35.8453C399.855 35.8615 401.098 36.1282 402.252 36.6297C403.406 37.1312 404.449 37.8575 405.319 38.7661H405.929L409.673 34.7987V34.1899C408.471 32.7068 406.892 31.5749 405.1 30.9133C403.034 30.0815 400.824 29.661 398.597 29.6752C395.215 29.6752 392.522 30.4276 390.518 31.9325C389.555 32.6286 388.779 33.5503 388.256 34.6166C387.733 35.6829 387.48 36.8612 387.52 38.0479C387.501 39.0746 387.717 40.0921 388.149 41.0235C388.522 41.8269 389.026 42.5622 389.642 43.1988C390.354 43.8649 391.161 44.4206 392.038 44.8473C392.883 45.2992 393.756 45.6946 394.653 46.0307C395.372 46.2907 396.317 46.6053 397.494 46.9679C398.446 47.2962 399.158 47.563 399.617 47.7682C400.121 47.9919 400.584 48.2996 400.986 48.678C401.196 48.8528 401.367 49.0711 401.485 49.3179C401.603 49.5647 401.666 49.8341 401.67 50.1077C401.665 50.4211 401.579 50.7278 401.419 50.9977C401.259 51.2676 401.032 51.4913 400.76 51.6468C400.04 52.0851 399.206 52.2972 398.364 52.2556C396.82 52.2382 395.298 51.8906 393.9 51.2363C392.551 50.6744 391.344 49.8191 390.368 48.7327H389.765L385.959 52.9738V53.5758C387.355 55.2269 389.148 56.4978 391.169 57.2696C393.435 58.1923 395.862 58.6573 398.309 58.6377C401.723 58.6377 404.477 57.8762 406.572 56.353M363.36 49.2731C362.148 47.8379 361.483 46.0206 361.483 44.1428C361.483 42.2649 362.148 40.4476 363.36 39.0124C363.972 38.3396 364.723 37.8077 365.561 37.4534C366.399 37.0991 367.304 36.9308 368.214 36.9603C369.105 36.932 369.993 37.0916 370.818 37.4286C371.644 37.7657 372.389 38.2727 373.006 38.9166C374.235 40.3718 374.91 42.2146 374.91 44.1188C374.91 46.0231 374.235 47.8659 373.006 49.321C372.389 49.9649 371.644 50.472 370.818 50.809C369.993 51.1461 369.105 51.3057 368.214 51.2774C367.304 51.3068 366.399 51.1386 365.561 50.7843C364.723 50.43 363.972 49.898 363.36 49.2252M375.929 33.1433C373.292 30.7876 369.845 29.5431 366.31 29.6706C362.774 29.7981 359.426 31.2877 356.966 33.8273C354.454 36.6559 353.066 40.3064 353.066 44.088C353.066 47.8697 354.454 51.5201 356.966 54.3488C358.214 55.7219 359.74 56.8134 361.444 57.5506C363.147 58.2878 364.988 58.6538 366.844 58.624C370.209 58.6591 373.454 57.3747 375.881 55.0465V57.94H382.878V30.4276H375.881L375.929 33.1433ZM356.479 29.21V22.1643H325.337V29.21H336.585V57.94H345.238V29.21H356.479ZM309.961 37.5212C310.92 38.5322 311.521 39.8298 311.672 41.215H299.349C299.502 39.6942 300.209 38.2824 301.334 37.2476C302.491 36.2372 303.989 35.7062 305.524 35.7632C306.342 35.7275 307.158 35.8658 307.918 36.1689C308.678 36.472 309.365 36.9329 309.933 37.5212M319.908 43.8555C319.974 41.9617 319.651 40.0746 318.96 38.31C318.269 36.5455 317.224 34.9408 315.889 33.5948C314.538 32.3123 312.945 31.3109 311.204 30.6486C309.462 29.9863 307.606 29.6763 305.743 29.7367C301.444 29.7367 297.916 31.1048 295.159 33.841C293.8 35.199 292.734 36.8212 292.028 38.6073C291.321 40.3934 290.989 42.3053 291.052 44.2248C291.052 48.4796 292.494 51.9386 295.378 54.6018C298.263 57.2651 301.891 58.5967 306.264 58.5967C308.615 58.5947 310.947 58.1754 313.151 57.3586C315.274 56.5979 317.162 55.2963 318.628 53.5826V52.8986L314.828 49.2594H314.219C312.311 51.2842 309.776 52.2943 306.613 52.2898C304.803 52.347 303.029 51.7739 301.595 50.6686C300.905 50.0965 300.343 49.3864 299.944 48.5841C299.546 47.7818 299.32 46.9051 299.281 46.0102H319.73C319.845 45.2817 319.9 44.545 319.894 43.8076M267.645 33.841V30.3729H260.525V57.94H269.069V42.2685C269.038 41.5662 269.15 40.8649 269.397 40.2067C269.644 39.5485 270.021 38.9469 270.507 38.4378C270.988 37.9534 271.564 37.5739 272.199 37.3231C272.834 37.0723 273.514 36.9558 274.197 36.9808C274.885 36.9423 275.573 37.0525 276.214 37.304C276.856 37.5554 277.436 37.9422 277.914 38.4378C278.852 39.4878 279.344 40.8621 279.283 42.2685V57.94H287.827V41.6597C287.827 38.1345 286.771 35.2707 284.657 33.068C283.584 31.9658 282.291 31.1019 280.861 30.5326C279.431 29.9633 277.898 29.7015 276.36 29.7641C274.696 29.7169 273.044 30.0642 271.54 30.7776C270.036 31.491 268.722 32.5501 267.707 33.8684M255.192 30.4002H246.689V57.94H255.171L255.192 30.4002ZM241.288 57.94V20.7894L240.678 20.4063L232.798 21.2819V57.94H241.288ZM207.667 33.8752V30.4071H200.499V57.94H209.043V42.2685C209.012 41.5668 209.123 40.8662 209.369 40.2081C209.615 39.5501 209.99 38.9481 210.473 38.4378C210.956 37.9536 211.533 37.5742 212.17 37.3235C212.806 37.0727 213.487 36.9561 214.17 36.9808C214.858 36.9423 215.547 37.0525 216.188 37.304C216.83 37.5554 217.409 37.9422 217.888 38.4378C218.826 39.4878 219.317 40.8621 219.257 42.2685V57.94H227.801V41.6597C227.801 38.1345 226.744 35.2707 224.631 33.068C223.559 31.9667 222.266 31.1033 220.838 30.534C219.409 29.9648 217.877 29.7024 216.341 29.7641C214.676 29.7169 213.024 30.0642 211.52 30.7776C210.016 31.491 208.703 32.5501 207.687 33.8684M175.634 49.3142C174.417 47.8814 173.749 46.0631 173.749 44.1838C173.749 42.3045 174.417 40.4862 175.634 39.0534C176.246 38.3807 176.997 37.8487 177.835 37.4944C178.673 37.1401 179.578 36.9718 180.488 37.0013C181.379 36.973 182.267 37.1326 183.092 37.4697C183.918 37.8067 184.663 38.3137 185.28 38.9577C186.509 40.4128 187.184 42.2556 187.184 44.1599C187.184 46.0641 186.509 47.9069 185.28 49.362C184.663 50.006 183.918 50.513 183.092 50.8501C182.267 51.1871 181.379 51.3467 180.488 51.3184C179.578 51.3479 178.673 51.1796 177.835 50.8253C176.997 50.471 176.246 49.9391 175.634 49.2663M188.203 33.1843C185.566 30.8286 182.119 29.5841 178.584 29.7116C175.048 29.8391 171.7 31.3288 169.24 33.8684C166.728 36.697 165.34 40.3474 165.34 44.1291C165.34 47.9107 166.728 51.5612 169.24 54.3898C170.494 55.7644 172.03 56.8538 173.743 57.5843C175.455 58.3148 177.305 58.6693 179.166 58.624C182.533 58.6601 185.78 57.3757 188.21 55.0465V57.94H195.207V30.4276H188.21L188.203 33.1843ZM153.644 37.4801C154.604 38.4901 155.204 39.7887 155.349 41.174H143.067C143.22 39.6531 143.927 38.2413 145.052 37.2065C146.209 36.1962 147.707 35.6652 149.242 35.7221C150.06 35.6865 150.876 35.8248 151.636 36.1279C152.396 36.4309 153.083 36.8919 153.651 37.4801M163.626 43.8144C163.692 41.9201 163.369 40.0323 162.677 38.2675C161.984 36.5027 160.937 34.8985 159.6 33.5537C158.25 32.2715 156.659 31.2701 154.918 30.6078C153.178 29.9455 151.323 29.6354 149.461 29.6957C145.162 29.6957 141.634 31.0638 138.877 33.8C137.518 35.1582 136.453 36.7804 135.746 38.5665C135.04 40.3525 134.707 42.2643 134.77 44.1838C134.77 48.4386 136.212 51.8976 139.096 54.5608C141.981 57.224 145.609 58.5556 149.982 58.5556C152.335 58.5533 154.669 58.1341 156.876 57.3175C159.012 56.5622 160.912 55.2602 162.387 53.5416V52.8575L158.58 49.2184H157.978C156.997 50.2332 155.812 51.0281 154.501 51.5506C153.19 52.073 151.782 52.311 150.372 52.2487C148.562 52.3059 146.788 51.7329 145.354 50.6275C144.663 50.0563 144.1 49.3464 143.701 48.544C143.303 47.7415 143.077 46.8643 143.04 45.9692H163.489C163.604 45.2407 163.659 44.504 163.653 43.7665M131.134 57.94V20.7894L130.525 20.4063L122.645 21.2819V57.94H131.134ZM113.081 56.7292C115.615 55.5313 117.847 53.7805 119.612 51.6057V51.0038L114.32 46.5985H113.718C112.632 47.9579 111.247 49.048 109.67 49.7837C108.092 50.5194 106.366 50.8808 104.626 50.8396C102.502 50.7854 100.44 50.1152 98.6902 48.9104C96.9406 47.7057 95.5794 46.0186 94.7725 44.0545C93.9657 42.0905 93.7479 39.9343 94.1458 37.8488C94.5437 35.7633 95.5401 33.8384 97.0136 32.3087C98.0084 31.3095 99.1964 30.5231 100.505 29.9974C101.814 29.4718 103.216 29.2178 104.626 29.251C106.367 29.2083 108.093 29.5689 109.671 30.3047C111.248 31.0406 112.633 32.1316 113.718 33.4921H114.32L119.612 29.0869V28.526C117.837 26.3493 115.596 24.5985 113.054 23.4024C110.422 22.1519 107.541 21.5135 104.626 21.535C99.1084 21.535 94.4874 23.3044 90.7631 26.8432C88.9463 28.5312 87.5084 30.5849 86.5443 32.8688C85.5802 35.1528 85.1117 37.6151 85.1699 40.0932C85.1131 42.5642 85.5803 45.0192 86.5408 47.297C87.5012 49.5747 88.9332 51.6236 90.7426 53.309C92.5687 55.0567 94.723 56.426 97.0811 57.3382C99.4392 58.2504 101.955 58.6874 104.483 58.624C107.445 58.6615 110.378 58.0203 113.054 56.7498" fill="white"/>
<path d="M255.418 23.4572C255.424 22.8663 255.313 22.2801 255.091 21.7325C254.868 21.185 254.539 20.687 254.123 20.2676C253.706 19.8482 253.21 19.5157 252.664 19.2893C252.118 19.063 251.532 18.9474 250.941 18.9493C250.354 18.9377 249.771 19.0478 249.229 19.2727C248.687 19.4976 248.197 19.8323 247.791 20.2558C247.375 20.6712 247.046 21.1665 246.826 21.712C246.606 22.2575 246.499 22.8418 246.511 23.4298C246.503 24.0092 246.612 24.5843 246.832 25.1204C247.052 25.6565 247.378 26.1425 247.791 26.5491C248.197 26.9736 248.686 27.309 249.228 27.5339C249.77 27.7589 250.354 27.8684 250.941 27.8556C251.531 27.8669 252.118 27.7567 252.665 27.5319C253.211 27.3072 253.705 26.9726 254.117 26.5491C254.537 26.1458 254.869 25.661 255.094 25.1246C255.319 24.5881 255.431 24.0114 255.425 23.4298" fill="white"/>
<path d="M59.1958 23.4982C59.2702 23.477 59.3356 23.4321 59.3822 23.3704C59.4288 23.3087 59.454 23.2335 59.454 23.1562C59.454 23.0789 59.4288 23.0037 59.3822 22.942C59.3356 22.8803 59.2702 22.8354 59.1958 22.8142L37.1925 10.1388C37.0158 10.0476 36.8198 10 36.6209 10C36.422 10 36.226 10.0476 36.0492 10.1388L13.3203 23.2519C13.0054 23.4366 13.0054 23.7308 13.3203 23.936L22.9664 29.4905C23.1429 29.5784 23.3374 29.6242 23.5346 29.6242C23.7318 29.6242 23.9264 29.5784 24.1029 29.4905L36.0492 22.5953C36.226 22.5041 36.422 22.4565 36.6209 22.4565C36.8198 22.4565 37.0158 22.5041 37.1925 22.5953L48.6597 29.21C48.8352 29.3011 49.0301 29.3487 49.2279 29.3487C49.4257 29.3487 49.6206 29.3011 49.7961 29.21L59.1958 23.4982Z" fill="#FF460F"/>
<path d="M10.5682 28.738C10.2533 28.5533 10 28.738 10 29.0663V55.2038C10.0107 55.401 10.0677 55.593 10.1665 55.7641C10.2652 55.9352 10.4028 56.0807 10.5682 56.1888L33.1192 69.1857C33.4341 69.3636 33.6874 69.2199 33.6874 68.8574V57.7074C33.6767 57.5102 33.6197 57.3183 33.5209 57.1471C33.4222 56.976 33.2846 56.8305 33.1192 56.7224L21.3645 49.9435C21.1987 49.8358 21.0607 49.6903 20.962 49.5191C20.8632 49.3479 20.8064 49.1558 20.7963 48.9584V35.2775C20.7855 35.0803 20.7285 34.8883 20.6298 34.7172C20.5311 34.5461 20.3934 34.4006 20.228 34.2925L10.5682 28.738Z" fill="#FF460F"/>
<path d="M26.3895 45.7913C26.3997 45.9887 26.4565 46.1808 26.5553 46.352C26.654 46.5232 26.7919 46.6686 26.9578 46.7763L36.0836 52.0435C36.2603 52.1347 36.4563 52.1823 36.6552 52.1823C36.8541 52.1823 37.0501 52.1347 37.2269 52.0435L46.3527 46.7763C46.5194 46.669 46.6583 46.5238 46.7582 46.3526C46.8582 46.1815 46.9162 45.9891 46.9277 45.7913V35.2638C46.9168 35.0649 46.859 34.8714 46.759 34.6991C46.6591 34.5267 46.5199 34.3804 46.3527 34.2719L37.2269 29.0048C37.049 28.9173 36.8534 28.8718 36.6552 28.8718C36.457 28.8718 36.2614 28.9173 36.0836 29.0048L26.9578 34.2719C26.7914 34.3807 26.6532 34.5273 26.5545 34.6997C26.4557 34.8721 26.3992 35.0654 26.3895 35.2638V45.7913Z" fill="#FF460F"/>
<path d="M39.2463 69.0763C39.2463 69.4388 39.4997 69.5825 39.8146 69.4046L62.6736 56.2162C62.8379 56.1069 62.9747 55.9611 63.0732 55.7902C63.1718 55.6193 63.2295 55.428 63.2418 55.2312V28.1976C63.2418 27.8351 62.9885 27.6914 62.6804 27.8761L53.007 33.7452C52.8416 33.8567 52.7043 34.0048 52.6057 34.1781C52.5071 34.3513 52.45 34.545 52.4387 34.7439V48.9995C52.4285 49.1968 52.3717 49.389 52.273 49.5602C52.1742 49.7314 52.0363 49.8768 51.8705 49.9845L39.8077 56.9413C39.6422 57.0509 39.5045 57.1977 39.4059 57.3699C39.3072 57.5421 39.2502 57.735 39.2395 57.9332L39.2463 69.0763Z" fill="#FF460F"/>
</svg>
