<svg width="53" height="53" viewBox="0 0 53 53" fill="none" xmlns="http://www.w3.org/2000/svg">
<g clip-path="url(#clip0_614_10741)">
<path d="M26.6635 22.4639C26.6635 23.6132 27.1201 24.7154 27.9327 25.5281C28.7454 26.3407 29.8476 26.7973 30.9968 26.7973C32.1461 26.7973 33.2483 26.3407 34.061 25.5281C34.8736 24.7154 35.3302 23.6132 35.3302 22.4639C35.3302 21.3147 34.8736 20.2125 34.061 19.3998C33.2483 18.5872 32.1461 18.1306 30.9968 18.1306C29.8476 18.1306 28.7454 18.5872 27.9327 19.3998C27.1201 20.2125 26.6635 21.3147 26.6635 22.4639Z" stroke="white" stroke-width="4" stroke-linecap="round" stroke-linejoin="round"/>
<path d="M46.1635 26.7974C46.1635 29.3581 45.6591 31.8938 44.6792 34.2597C43.6992 36.6255 42.2628 38.7752 40.4521 40.5859C38.6414 42.3967 36.4917 43.8331 34.1258 44.813C31.76 45.793 29.2243 46.2974 26.6635 46.2974C24.1027 46.2974 21.567 45.793 19.2012 44.813C16.8353 43.8331 14.6857 42.3967 12.8749 40.5859C11.0642 38.7752 9.62783 36.6255 8.64786 34.2597C7.6679 31.8938 7.16351 29.3581 7.16351 26.7974C7.16351 21.6256 9.21797 16.6657 12.8749 13.0088C16.5319 9.35182 21.4918 7.29736 26.6635 7.29736C31.8352 7.29736 36.7951 9.35182 40.4521 13.0088C44.1091 16.6657 46.1635 21.6256 46.1635 26.7974Z" stroke="white" stroke-width="4" stroke-linecap="round" stroke-linejoin="round"/>
<path d="M27.7468 25.7141L19.0802 34.3808L22.3302 37.6308" stroke="white" stroke-width="4" stroke-linecap="round" stroke-linejoin="round"/>
<path d="M26.6635 33.2974L23.4135 30.0474" stroke="white" stroke-width="4" stroke-linecap="round" stroke-linejoin="round"/>
</g>
<defs>
<clipPath id="clip0_614_10741">
<rect width="52" height="52" fill="white" transform="translate(0.663513 0.797363)"/>
</clipPath>
</defs>
</svg>
