<svg width="53" height="53" viewBox="0 0 53 53" fill="none" xmlns="http://www.w3.org/2000/svg">
<g clip-path="url(#clip0_614_10699)">
<path d="M28.651 25.8648C28.9695 24.5515 28.8707 23.1714 28.3683 21.9168C27.866 20.6622 26.985 19.5954 25.8481 18.8648C24.7111 18.1341 23.3747 17.7761 22.0248 17.8404C20.6749 17.9047 19.3786 18.3881 18.3162 19.2235C17.2539 20.0589 16.4783 21.2046 16.0975 22.5013C15.7167 23.798 15.7495 25.1812 16.1914 26.4583C16.6332 27.7355 17.4622 28.8432 18.563 29.6273C19.6638 30.4113 20.9815 30.8328 22.333 30.833" stroke="white" stroke-width="4" stroke-linecap="round" stroke-linejoin="round"/>
<path d="M22.3123 47.0505C21.1707 47.0466 20.077 46.5909 19.2703 45.783L10.075 36.5899C8.03954 34.5544 6.54307 32.0441 5.72065 29.2856C4.89823 26.5271 4.77576 23.6071 5.3643 20.7894C5.95283 17.9717 7.23384 15.3449 9.09168 13.1462C10.9495 10.9475 13.3257 9.24605 16.0057 8.19553C18.6857 7.14501 21.5851 6.77847 24.4422 7.129C27.2993 7.47952 30.0241 8.53608 32.3707 10.2033C34.7173 11.8705 36.6117 14.0958 37.8829 16.6785C39.1541 19.2611 39.7622 22.1196 39.6521 24.996" stroke="white" stroke-width="4" stroke-linecap="round" stroke-linejoin="round"/>
<path d="M30.9981 45C30.9981 45.5304 31.2089 46.0391 31.5839 46.4142C31.959 46.7893 32.4677 47 32.9981 47C33.5286 47 34.0373 46.7893 34.4124 46.4142C34.7874 46.0391 34.9981 45.5304 34.9981 45C34.9981 44.4696 34.7874 43.9609 34.4124 43.5858C34.0373 43.2107 33.5286 43 32.9981 43C32.4677 43 31.959 43.2107 31.5839 43.5858C31.2089 43.9609 30.9981 44.4696 30.9981 45Z" stroke="white" stroke-width="3" stroke-linecap="round" stroke-linejoin="round"/>
<path d="M41.9981 45C41.9981 45.5304 42.2089 46.0391 42.5839 46.4142C42.959 46.7893 43.4677 47 43.9981 47C44.5286 47 45.0373 46.7893 45.4124 46.4142C45.7874 46.0391 45.9981 45.5304 45.9981 45C45.9981 44.4696 45.7874 43.9609 45.4124 43.5858C45.0373 43.2107 44.5286 43 43.9981 43C43.4677 43 42.959 43.2107 42.5839 43.5858C42.2089 43.9609 41.9981 44.4696 41.9981 45Z" stroke="white" stroke-width="3" stroke-linecap="round" stroke-linejoin="round"/>
<path d="M31.156 45H29.0508V40.6667M27.9981 32H39.5771V45M35.3666 45H41.6823M45.8929 45H47.9981V38.5M47.9981 38.5H39.5771M47.9981 38.5L44.8402 33.0833H39.5771" stroke="white" stroke-width="3" stroke-linecap="round" stroke-linejoin="round"/>
<path d="M28.9981 36H32.9981" stroke="white" stroke-width="3" stroke-linecap="round" stroke-linejoin="round"/>
</g>
<defs>
<clipPath id="clip0_614_10699">
<rect width="52" height="52" fill="white" transform="translate(0.664154 0.629639)"/>
</clipPath>
</defs>
</svg>
