<svg width="53" height="53" viewBox="0 0 53 53" fill="none" xmlns="http://www.w3.org/2000/svg">
<g clip-path="url(#clip0_611_10407)">
<path d="M17.9575 15.7963C17.9575 18.0948 18.8706 20.2992 20.4959 21.9246C22.1212 23.5499 24.3256 24.463 26.6241 24.463C28.9227 24.463 31.1271 23.5499 32.7524 21.9246C34.3777 20.2992 35.2908 18.0948 35.2908 15.7963C35.2908 13.4978 34.3777 11.2934 32.7524 9.66805C31.1271 8.04273 28.9227 7.12964 26.6241 7.12964C24.3256 7.12964 22.1212 8.04273 20.4959 9.66805C18.8706 11.2934 17.9575 13.4978 17.9575 15.7963Z" stroke="white" stroke-width="4" stroke-linecap="round" stroke-linejoin="round"/>
<path d="M13.6241 46.1296V41.7963C13.6241 39.4978 14.5372 37.2934 16.1626 35.668C17.7879 34.0427 19.9923 33.1296 22.2908 33.1296H32.9991" stroke="white" stroke-width="4" stroke-linecap="round" stroke-linejoin="round"/>
<path d="M45.5541 32.8431L49.1561 36.4451C49.4233 36.7122 49.6353 37.0294 49.7799 37.3785C49.9245 37.7276 49.999 38.1017 49.999 38.4796C49.999 38.8574 49.9245 39.2316 49.7799 39.5806C49.6353 39.9297 49.4233 40.2469 49.1561 40.5141L46.5131 43.1571C46.246 43.4243 45.9288 43.6362 45.5797 43.7808C45.2306 43.9254 44.8565 43.9999 44.4786 43.9999C44.1008 43.9999 43.7266 43.9254 43.3776 43.7808C43.0285 43.6362 42.7113 43.4243 42.4441 43.1571L42.1431 42.8561L35.5851 49.4141C35.2529 49.7463 34.8142 49.9509 34.3461 49.9921L34.1711 50.0001H32.9991C32.7542 50 32.5178 49.9101 32.3348 49.7473C32.1517 49.5846 32.0348 49.3603 32.0061 49.1171L31.9991 49.0001V47.8281C31.9993 47.3585 32.1646 46.904 32.4661 46.5441L32.5851 46.4141L32.9991 46.0001H34.9991V44.0001H36.9991V42.0001L39.1431 39.8561L38.8421 39.5551C38.5749 39.2879 38.363 38.9707 38.2184 38.6216C38.0738 38.2726 37.9993 37.8984 37.9993 37.5206C37.9993 37.1427 38.0738 36.7686 38.2184 36.4195C38.363 36.0704 38.5749 35.7532 38.8421 35.4861L41.4851 32.8431C41.7523 32.5759 42.0695 32.3639 42.4186 32.2193C42.7676 32.0747 43.1418 32.0002 43.5196 32.0002C43.8975 32.0002 44.2716 32.0747 44.6207 32.2193C44.9698 32.3639 45.287 32.5759 45.5541 32.8431Z" stroke="white" stroke-width="3" stroke-linecap="round" stroke-linejoin="round"/>
<path d="M43.9991 38H44.0091" stroke="white" stroke-width="3" stroke-linecap="round" stroke-linejoin="round"/>
</g>
<defs>
<clipPath id="clip0_611_10407">
<rect width="52" height="52" fill="white" transform="translate(0.624146 0.629639)"/>
</clipPath>
</defs>
</svg>
