<svg width="80" height="80" viewBox="0 0 80 80" fill="none" xmlns="http://www.w3.org/2000/svg">
<g clip-path="url(#clip0_471_1445)">
<path d="M16.6667 23.3333C16.6667 26.8696 18.0714 30.2609 20.5719 32.7614C23.0724 35.2619 26.4638 36.6667 30 36.6667C33.5362 36.6667 36.9276 35.2619 39.4281 32.7614C41.9286 30.2609 43.3333 26.8696 43.3333 23.3333C43.3333 19.7971 41.9286 16.4057 39.4281 13.9052C36.9276 11.4048 33.5362 10 30 10C26.4638 10 23.0724 11.4048 20.5719 13.9052C18.0714 16.4057 16.6667 19.7971 16.6667 23.3333Z" stroke="white" stroke-width="4" stroke-linecap="round" stroke-linejoin="round"/>
<path d="M10 70V63.3333C10 59.7971 11.4048 56.4057 13.9052 53.9052C16.4057 51.4048 19.7971 50 23.3333 50H36.6667C40.2029 50 43.5943 51.4048 46.0948 53.9052C48.5952 56.4057 50 59.7971 50 63.3333V70" stroke="white" stroke-width="4" stroke-linecap="round" stroke-linejoin="round"/>
<path d="M53.3333 10.4333C56.2014 11.1677 58.7435 12.8357 60.5588 15.1744C62.3741 17.5131 63.3595 20.3894 63.3595 23.35C63.3595 26.3106 62.3741 29.1869 60.5588 31.5256C58.7435 33.8643 56.2014 35.5323 53.3333 36.2667" stroke="white" stroke-width="4" stroke-linecap="round" stroke-linejoin="round"/>
<path d="M70 70V63.3333C69.9831 60.3905 68.993 57.536 67.1842 55.2147C65.3754 52.8933 62.8494 51.2357 60 50.5" stroke="white" stroke-width="4" stroke-linecap="round" stroke-linejoin="round"/>
</g>
<defs>
<clipPath id="clip0_471_1445">
<rect width="80" height="80" fill="white"/>
</clipPath>
</defs>
</svg>
