<svg width="80" height="80" viewBox="0 0 80 80" fill="none" xmlns="http://www.w3.org/2000/svg">
<g clip-path="url(#clip0_471_1451)">
<path d="M26.6667 23.3333C26.6667 26.8696 28.0714 30.2609 30.5719 32.7614C33.0724 35.2619 36.4638 36.6667 40 36.6667C43.5362 36.6667 46.9276 35.2619 49.4281 32.7614C51.9286 30.2609 53.3333 26.8696 53.3333 23.3333C53.3333 19.7971 51.9286 16.4057 49.4281 13.9052C46.9276 11.4048 43.5362 10 40 10C36.4638 10 33.0724 11.4048 30.5719 13.9052C28.0714 16.4057 26.6667 19.7971 26.6667 23.3333Z" stroke="white" stroke-width="4" stroke-linecap="round" stroke-linejoin="round"/>
<path d="M20 70V63.3333C20 59.7971 21.4048 56.4057 23.9052 53.9052C26.4057 51.4048 29.7971 50 33.3333 50H45" stroke="white" stroke-width="4" stroke-linecap="round" stroke-linejoin="round"/>
<path d="M61.4 52.0334C62.05 51.3833 62.8218 50.8677 63.6711 50.5159C64.5204 50.1641 65.4307 49.983 66.35 49.983C67.2693 49.983 68.1796 50.1641 69.0289 50.5159C69.8782 50.8677 70.65 51.3833 71.3 52.0334C71.95 52.6834 72.4657 53.4551 72.8175 54.3045C73.1693 55.1538 73.3504 56.0641 73.3504 56.9834C73.3504 57.9027 73.1693 58.813 72.8175 59.6623C72.4657 60.5116 71.95 61.2833 71.3 61.9334L60 73.3334H50V63.3334L61.4 52.0334Z" stroke="white" stroke-width="4" stroke-linecap="round" stroke-linejoin="round"/>
</g>
<defs>
<clipPath id="clip0_471_1451">
<rect width="80" height="80" fill="white"/>
</clipPath>
</defs>
</svg>
