<svg width="32" height="32" viewBox="0 0 32 32" fill="none" xmlns="http://www.w3.org/2000/svg">
  <g clip-path="url(#clip0_471_940)">
    <path d="M14.1133 14.116C13.6133 14.6162 13.3325 15.2945 13.3326 16.0018C13.3327 16.709 13.6138 17.3873 14.114 17.8873C14.6142 18.3873 15.2925 18.6682 15.9998 18.668C16.707 18.6679 17.3853 18.3868 17.8853 17.8866" stroke="#d8d7dd" stroke-width="2" stroke-linecap="round" stroke-linejoin="round"/>
    <path d="M22.2413 22.2307C20.371 23.4009 18.2062 24.0146 16 24C11.2 24 7.2 21.3334 4 16C5.696 13.1734 7.616 11.096 9.76 9.76804M13.5733 8.24004C14.3721 8.07835 15.1851 7.99794 16 8.00004C20.8 8.00004 24.8 10.6667 28 16C27.112 17.48 26.1613 18.756 25.1493 19.8267" stroke="#d8d7dd" stroke-width="2" stroke-linecap="round" stroke-linejoin="round"/>
    <path d="M4 4L28 28" stroke="#d8d7dd" stroke-width="2" stroke-linecap="round" stroke-linejoin="round"/>
  </g>
  <defs>
    <clipPath id="clip0_471_940">
      <rect width="32" height="32" fill="white"/>
    </clipPath>
  </defs>
</svg>
