<svg width="32" height="33" viewBox="0 0 32 33" fill="none" xmlns="http://www.w3.org/2000/svg">
  <g clip-path="url(#clip0_471_945)">
    <path d="M28 16.4443C24.8 21.7777 20.8 24.4443 16 24.4443C11.2 24.4443 7.2 21.7777 4 16.4443C7.2 11.111 11.2 8.44434 16 8.44434C20.8 8.44434 24.8 11.111 28 16.4443Z" stroke="#d8d7dd" stroke-width="2" stroke-linecap="round" stroke-linejoin="round"/>
    <path d="M13.3334 16.4444C13.3334 17.1516 13.6143 17.8299 14.1144 18.33C14.6145 18.8301 15.2928 19.111 16 19.111C16.7073 19.111 17.3856 18.8301 17.8857 18.33C18.3858 17.8299 18.6667 17.1516 18.6667 16.4444C18.6667 15.7371 18.3858 15.0589 17.8857 14.5588C17.3856 14.0587 16.7073 13.7777 16 13.7777C15.2928 13.7777 14.6145 14.0587 14.1144 14.5588C13.6143 15.0589 13.3334 15.7371 13.3334 16.4444Z" fill="#d8d7dd"/>
  </g>
  <defs>
    <clipPath id="clip0_471_945">
      <rect width="32" height="32" fill="white" transform="translate(0 0.444336)"/>
    </clipPath>
  </defs>
</svg>
