<svg width="80" height="80" viewBox="0 0 80 80" fill="none" xmlns="http://www.w3.org/2000/svg">
  <g clip-path="url(#clip0_471_1397)">
    <path d="M63.3333 49.9999V43.3333C63.3333 41.5652 62.6309 39.8695 61.3807 38.6192C60.1305 37.369 58.4348 36.6666 56.6667 36.6666H23.3333C21.5652 36.6666 19.8695 37.369 18.6193 38.6192C17.369 39.8695 16.6667 41.5652 16.6667 43.3333V63.3333C16.6667 65.1014 17.369 66.7971 18.6193 68.0473C19.8695 69.2976 21.5652 70 23.3333 70L51.5384 70" stroke="#ff460f" stroke-width="4" stroke-linecap="round" stroke-linejoin="round"/>
    <path d="M26.6667 36.6667V23.3333C26.6667 19.7971 28.0714 16.4057 30.5719 13.9052C33.0724 11.4048 36.4638 10 40 10C43.5362 10 46.9276 11.4048 49.4281 13.9052C51.9286 16.4057 53.3333 19.7971 53.3333 23.3333V36.6667" stroke="#ff460f" stroke-width="4" stroke-linecap="round" stroke-linejoin="round"/>
    <path d="M50 53.3334H50.0333" stroke="#ff460f" stroke-width="4" stroke-linecap="round" stroke-linejoin="round"/>
    <path d="M40.0333 53.3334H40.0667" stroke="#ff460f" stroke-width="4" stroke-linecap="round" stroke-linejoin="round"/>
    <path d="M30.0667 53.3334H30.1" stroke="#ff460f" stroke-width="4" stroke-linecap="round" stroke-linejoin="round"/>
    <path d="M56 59C56 58.2044 56.3687 57.4413 57.0251 56.8787C57.6815 56.3161 58.5717 56 59.5 56H60.5C61.4283 56 62.3185 56.3161 62.9749 56.8787C63.6313 57.4413 64 58.2044 64 59C64.0368 59.6493 63.8617 60.2929 63.501 60.834C63.1402 61.3751 62.6135 61.7843 62 62C61.3865 62.2876 60.8598 62.8333 60.499 63.5547C60.1383 64.2761 59.9631 64.4986 60 65.3643" stroke="#ff460f" stroke-width="3" stroke-linecap="round" stroke-linejoin="round"/>
    <path d="M60 70.7489V70.7589" stroke="#ff460f" stroke-width="3" stroke-linecap="round" stroke-linejoin="round"/>
  </g>
  <defs>
    <clipPath id="clip0_471_1397">
      <rect width="80" height="80" fill="white"/>
    </clipPath>
  </defs>
</svg>
