<svg width="80" height="80" viewBox="0 0 80 80" fill="none" xmlns="http://www.w3.org/2000/svg">
<g clip-path="url(#clip0_471_1357)">
<path d="M13.3333 46.6667V36.6667C13.3333 29.5942 16.1429 22.8115 21.1438 17.8105C26.1448 12.8095 32.9276 10 40 10C47.0724 10 53.8552 12.8095 58.8562 17.8105C63.8572 22.8115 66.6667 29.5942 66.6667 36.6667V46.6667" stroke="white" stroke-width="4" stroke-linecap="round" stroke-linejoin="round"/>
<path d="M60 63.3334C60 68.8567 51.0467 73.3334 40 73.3334" stroke="white" stroke-width="4" stroke-linecap="round" stroke-linejoin="round"/>
<path d="M13.3333 46.6667C13.3333 44.8986 14.0357 43.2029 15.286 41.9526C16.5362 40.7024 18.2319 40 20 40H23.3333C25.1014 40 26.7971 40.7024 28.0474 41.9526C29.2976 43.2029 30 44.8986 30 46.6667V56.6667C30 58.4348 29.2976 60.1305 28.0474 61.3807C26.7971 62.631 25.1014 63.3333 23.3333 63.3333H20C18.2319 63.3333 16.5362 62.631 15.286 61.3807C14.0357 60.1305 13.3333 58.4348 13.3333 56.6667V46.6667Z" stroke="white" stroke-width="4" stroke-linecap="round" stroke-linejoin="round"/>
<path d="M50 46.6667C50 44.8986 50.7024 43.2029 51.9526 41.9526C53.2029 40.7024 54.8986 40 56.6667 40H60C61.7681 40 63.4638 40.7024 64.714 41.9526C65.9643 43.2029 66.6667 44.8986 66.6667 46.6667V56.6667C66.6667 58.4348 65.9643 60.1305 64.714 61.3807C63.4638 62.631 61.7681 63.3333 60 63.3333H56.6667C54.8986 63.3333 53.2029 62.631 51.9526 61.3807C50.7024 60.1305 50 58.4348 50 56.6667V46.6667Z" stroke="white" stroke-width="4" stroke-linecap="round" stroke-linejoin="round"/>
</g>
<defs>
<clipPath id="clip0_471_1357">
<rect width="80" height="80" fill="white"/>
</clipPath>
</defs>
</svg>
