<svg width="19" height="19" viewBox="0 0 19 19" fill="none" xmlns="http://www.w3.org/2000/svg">
<g clip-path="url(#clip0_409_4578)">
<path d="M9.31196 15.116C9.49964 15.116 9.68079 15.1859 9.82104 15.3123C9.96129 15.4387 10.0509 15.6129 10.0729 15.8019L10.0782 15.8928V16.6696C10.078 16.8676 10.0032 17.058 9.86915 17.202C9.73508 17.3459 9.55184 17.4326 9.35687 17.4442C9.1619 17.4558 8.96992 17.3915 8.82015 17.2644C8.67038 17.1373 8.57413 16.9571 8.55106 16.7605L8.5457 16.6696V15.8928C8.5457 15.6868 8.62643 15.4892 8.77013 15.3435C8.91383 15.1978 9.10874 15.116 9.31196 15.116Z" fill="#FF460F"/>
<path d="M14.1494 13.4925L14.2214 13.557L14.7578 14.1007C14.8952 14.2405 14.975 14.4281 14.9809 14.6254C14.9869 14.8226 14.9185 15.0148 14.7898 15.1628C14.661 15.3108 14.4815 15.4036 14.2877 15.4224C14.0939 15.4411 13.9003 15.3843 13.7463 15.2636L13.6743 15.1991L13.1379 14.6554C13.0057 14.5216 12.9262 14.3434 12.9145 14.1543C12.9028 13.9653 12.9596 13.7784 13.0743 13.6289C13.1889 13.4794 13.3535 13.3774 13.5371 13.3423C13.7207 13.3072 13.9107 13.3413 14.0712 13.4381L14.1494 13.4925Z" fill="#FF460F"/>
<path d="M5.48602 13.557C5.61795 13.6907 5.69721 13.8687 5.70892 14.0575C5.72063 14.2463 5.66399 14.4329 5.54962 14.5823L5.48602 14.6554L4.94964 15.1991C4.81175 15.3384 4.62671 15.4193 4.43212 15.4253C4.23753 15.4314 4.04797 15.3621 3.90195 15.2315C3.75593 15.101 3.66439 14.919 3.64593 14.7226C3.62746 14.5261 3.68346 14.3299 3.80255 14.1738L3.86615 14.1007L4.40253 13.557C4.54623 13.4114 4.74109 13.3296 4.94428 13.3296C5.14746 13.3296 5.34233 13.4114 5.48602 13.557Z" fill="#FF460F"/>
<path d="M3.18188 8.9017C3.37718 8.90192 3.56503 8.97773 3.70705 9.11365C3.84907 9.24956 3.93453 9.43532 3.94597 9.63296C3.95742 9.83061 3.89398 10.0252 3.76863 10.1771C3.64328 10.3289 3.46547 10.4265 3.27153 10.4498L3.18188 10.4553H2.41562C2.22031 10.4551 2.03246 10.3792 1.89045 10.2433C1.74843 10.1074 1.66297 9.92166 1.65153 9.72401C1.64008 9.52637 1.70351 9.33175 1.82887 9.17992C1.95422 9.0281 2.13203 8.93052 2.32597 8.90714L2.41562 8.9017H3.18188Z" fill="#FF460F"/>
<path d="M16.2083 8.9017C16.4036 8.90192 16.5915 8.97773 16.7335 9.11365C16.8755 9.24956 16.961 9.43532 16.9724 9.63296C16.9838 9.83061 16.9204 10.0252 16.7951 10.1771C16.6697 10.3289 16.4919 10.4265 16.298 10.4498L16.2083 10.4553H15.442C15.2467 10.4551 15.0589 10.3792 14.9169 10.2433C14.7749 10.1074 14.6894 9.92166 14.678 9.72401C14.6665 9.52637 14.7299 9.33175 14.8553 9.17992C14.9806 9.0281 15.1585 8.93052 15.3524 8.90714L15.442 8.9017H16.2083Z" fill="#FF460F"/>
<path d="M4.87762 4.0934L4.94964 4.15788L5.48603 4.70163C5.62345 4.84141 5.70324 5.02899 5.70918 5.22625C5.71513 5.42352 5.64678 5.61568 5.51802 5.76371C5.38926 5.91174 5.20975 6.00453 5.01595 6.02325C4.82214 6.04196 4.62858 5.9852 4.47456 5.86447L4.40253 5.8L3.86615 5.25625C3.73442 5.12239 3.65538 4.94443 3.64383 4.75571C3.63229 4.567 3.68904 4.3805 3.80344 4.23117C3.91785 4.08184 4.08205 3.97994 4.26527 3.94456C4.44849 3.90919 4.63815 3.94278 4.79869 4.03903L4.87762 4.0934Z" fill="#FF460F"/>
<path d="M14.7578 4.15788C14.8897 4.29164 14.969 4.4696 14.9807 4.65838C14.9924 4.84716 14.9357 5.03378 14.8214 5.18324L14.7578 5.25626L14.2214 5.80001C14.0835 5.93932 13.8985 6.02021 13.7039 6.02623C13.5093 6.03225 13.3197 5.96297 13.1737 5.83244C13.0277 5.70191 12.9361 5.51994 12.9177 5.32347C12.8992 5.127 12.9552 4.93078 13.0743 4.77465L13.1379 4.70163L13.6743 4.15788C13.818 4.01226 14.0128 3.93045 14.216 3.93045C14.4192 3.93045 14.6141 4.01226 14.7578 4.15788Z" fill="#FF460F"/>
<path d="M9.31196 1.91061C9.49964 1.91064 9.68079 1.98049 9.82104 2.10692C9.96129 2.23335 10.0509 2.40756 10.0729 2.59652L10.0782 2.6874V3.46419C10.078 3.66217 10.0032 3.8526 9.86915 3.99657C9.73508 4.14054 9.55184 4.22717 9.35687 4.23877C9.1619 4.25038 8.96992 4.18607 8.82015 4.059C8.67038 3.93192 8.57413 3.75167 8.55106 3.55507L8.5457 3.46419V2.6874C8.5457 2.48138 8.62643 2.2838 8.77013 2.13813C8.91383 1.99245 9.10874 1.91061 9.31196 1.91061Z" fill="#FF460F"/>
<path d="M9.31195 5.79456C10.0626 5.79451 10.7968 6.01803 11.4233 6.43735C12.0497 6.85666 12.5408 7.4533 12.8356 8.15316C13.1305 8.85301 13.216 9.62525 13.0816 10.3739C12.9471 11.1226 12.5987 11.8148 12.0796 12.3645C11.5604 12.9142 10.8934 13.2971 10.1614 13.4658C9.42936 13.6345 8.66459 13.5814 7.96206 13.3133C7.25953 13.0451 6.65018 12.5736 6.20972 11.9574C5.76925 11.3412 5.51706 10.6073 5.48448 9.84705L5.48065 9.67848L5.48448 9.50992C5.52733 8.51 5.9493 7.56545 6.6624 6.87325C7.37549 6.18104 8.32465 5.79461 9.31195 5.79456Z" fill="#FF460F"/>
</g>
<defs>
<clipPath id="clip0_409_4578">
<rect width="18.3902" height="18.6429" fill="white" transform="translate(0.116837 0.357056)"/>
</clipPath>
</defs>
</svg>
