<svg width="80" height="80" viewBox="0 0 80 80" fill="none" xmlns="http://www.w3.org/2000/svg">
<g clip-path="url(#clip0_471_1346)">
<path d="M10 40C10 43.9397 10.776 47.8407 12.2836 51.4805C13.7913 55.1203 16.001 58.4274 18.7868 61.2132C21.5726 63.999 24.8797 66.2087 28.5195 67.7164C32.1593 69.224 36.0603 70 40 70C43.9397 70 47.8407 69.224 51.4805 67.7164C55.1203 66.2087 58.4274 63.999 61.2132 61.2132C63.999 58.4274 66.2087 55.1203 67.7164 51.4805C69.224 47.8407 70 43.9397 70 40C70 36.0603 69.224 32.1593 67.7164 28.5195C66.2087 24.8797 63.999 21.5726 61.2132 18.7868C58.4274 16.001 55.1203 13.7913 51.4805 12.2836C47.8407 10.776 43.9397 10 40 10C36.0603 10 32.1593 10.776 28.5195 12.2836C24.8797 13.7913 21.5726 16.001 18.7868 18.7868C16.001 21.5726 13.7913 24.8797 12.2836 28.5195C10.776 32.1593 10 36.0603 10 40Z" stroke="white" stroke-width="4" stroke-linecap="round" stroke-linejoin="round"/>
<path d="M30 33.3333C30 35.9855 31.0536 38.529 32.9289 40.4044C34.8043 42.2797 37.3478 43.3333 40 43.3333C42.6522 43.3333 45.1957 42.2797 47.0711 40.4044C48.9464 38.529 50 35.9855 50 33.3333C50 30.6811 48.9464 28.1376 47.0711 26.2622C45.1957 24.3869 42.6522 23.3333 40 23.3333C37.3478 23.3333 34.8043 24.3869 32.9289 26.2622C31.0536 28.1376 30 30.6811 30 33.3333Z" stroke="white" stroke-width="4" stroke-linecap="round" stroke-linejoin="round"/>
<path d="M20.56 62.83C21.385 60.0841 23.0732 57.6773 25.3742 55.9666C27.6751 54.2559 30.4662 53.3325 33.3333 53.3333H46.6667C49.5375 53.3323 52.332 54.258 54.6346 55.9726C56.9372 57.6872 58.6249 60.0992 59.4467 62.85" stroke="white" stroke-width="4" stroke-linecap="round" stroke-linejoin="round"/>
</g>
<defs>
<clipPath id="clip0_471_1346">
<rect width="80" height="80" fill="white"/>
</clipPath>
</defs>
</svg>
