<svg width="52" height="52" viewBox="0 0 52 52" fill="none" xmlns="http://www.w3.org/2000/svg">
  <g clip-path="url(#clip0_471_989)">
    <path d="M10.8333 28.1666C10.8333 27.0174 11.2899 25.9152 12.1025 25.1025C12.9152 24.2899 14.0174 23.8333 15.1666 23.8333H36.8333C37.9826 23.8333 39.0848 24.2899 39.8974 25.1025C40.7101 25.9152 41.1666 27.0174 41.1666 28.1666V41.1666C41.1666 42.3159 40.7101 43.4181 39.8974 44.2308C39.0848 45.0434 37.9826 45.5 36.8333 45.5H15.1666C14.0174 45.5 12.9152 45.0434 12.1025 44.2308C11.2899 43.4181 10.8333 42.3159 10.8333 41.1666V28.1666Z" stroke="#ff460f" stroke-width="4" stroke-linecap="round" stroke-linejoin="round"/>
    <path d="M17.3333 23.8333V15.1667C17.3333 12.8681 18.2464 10.6637 19.8717 9.03841C21.497 7.41309 23.7014 6.5 26 6.5C28.2985 6.5 30.5029 7.41309 32.1282 9.03841C33.7536 10.6637 34.6666 12.8681 34.6666 15.1667V23.8333" stroke="#ff460f" stroke-width="4" stroke-linecap="round" stroke-linejoin="round"/>
    <path d="M32.5 34.6667H32.5217" stroke="#ff460f" stroke-width="4" stroke-linecap="round" stroke-linejoin="round"/>
    <path d="M26.0217 34.6667H26.0433" stroke="#ff460f" stroke-width="4" stroke-linecap="round" stroke-linejoin="round"/>
    <path d="M19.5433 34.6667H19.565" stroke="#ff460f" stroke-width="4" stroke-linecap="round" stroke-linejoin="round"/>
  </g>
  <defs>
    <clipPath id="clip0_471_989">
      <rect width="52" height="52" fill="white"/>
    </clipPath>
  </defs>
</svg>
