<svg width="80" height="80" viewBox="0 0 80 80" fill="none" xmlns="http://www.w3.org/2000/svg">
<g clip-path="url(#clip0_471_1456)">
<path d="M46.6667 10V23.3333C46.6667 24.2174 47.0179 25.0652 47.643 25.6904C48.2681 26.3155 49.1159 26.6667 50 26.6667H63.3333" stroke="white" stroke-width="4" stroke-linecap="round" stroke-linejoin="round"/>
<path d="M56.6667 70H23.3333C21.5652 70 19.8695 69.2976 18.6193 68.0474C17.369 66.7971 16.6667 65.1014 16.6667 63.3333V16.6667C16.6667 14.8986 17.369 13.2029 18.6193 11.9526C19.8695 10.7024 21.5652 10 23.3333 10H46.6667L63.3333 26.6667V63.3333C63.3333 65.1014 62.631 66.7971 61.3807 68.0474C60.1305 69.2976 58.4348 70 56.6667 70Z" stroke="white" stroke-width="4" stroke-linecap="round" stroke-linejoin="round"/>
<path d="M40 36.6666V56.6666" stroke="white" stroke-width="4" stroke-linecap="round" stroke-linejoin="round"/>
<path d="M30 46.6666H50" stroke="white" stroke-width="4" stroke-linecap="round" stroke-linejoin="round"/>
</g>
<defs>
<clipPath id="clip0_471_1456">
<rect width="80" height="80" fill="white"/>
</clipPath>
</defs>
</svg>
