<svg width="54" height="53" viewBox="0 0 54 53" fill="none" xmlns="http://www.w3.org/2000/svg">
<g clip-path="url(#clip0_614_10731)">
<path d="M9.59137 42.1225C9.59137 43.2762 10.0497 44.3826 10.8655 45.1984C11.6812 46.0142 12.7877 46.4725 13.9414 46.4725C15.0951 46.4725 16.2015 46.0142 17.0173 45.1984C17.8331 44.3826 18.2914 43.2762 18.2914 42.1225C18.2914 40.9688 17.8331 39.8623 17.0173 39.0465C16.2015 38.2308 15.0951 37.7725 13.9414 37.7725C12.7877 37.7725 11.6812 38.2308 10.8655 39.0465C10.0497 39.8623 9.59137 40.9688 9.59137 42.1225Z" stroke="white" stroke-width="4" stroke-linecap="round" stroke-linejoin="round"/>
<path d="M24.8164 37.7723H13.9414V7.32227H9.59137" stroke="white" stroke-width="4" stroke-linecap="round" stroke-linejoin="round"/>
<path d="M13.9413 11.6724L44.3913 13.8474L42.8297 24.7724M27.4902 29.0724H13.9413" stroke="white" stroke-width="4" stroke-linecap="round" stroke-linejoin="round"/>
<path d="M31.491 46.0974V31.8752C31.491 31.4037 31.6716 30.9515 31.9931 30.6181C32.3146 30.2847 32.7506 30.0974 33.2053 30.0974H41.7767C42.2313 30.0974 42.6674 30.2847 42.9889 30.6181C43.3104 30.9515 43.491 31.4037 43.491 31.8752V46.0974L40.9195 44.3196L39.2053 46.0974L37.491 44.3196L35.7767 46.0974L34.0624 44.3196L31.491 46.0974Z" stroke="white" stroke-width="3" stroke-linecap="round" stroke-linejoin="round"/>
<path d="M34.491 34.0974H40.491" stroke="white" stroke-width="2" stroke-linecap="round"/>
<path d="M34.491 37.0974H40.491" stroke="white" stroke-width="2" stroke-linecap="round"/>
<path d="M34.491 40.0974H40.491" stroke="white" stroke-width="2" stroke-linecap="round"/>
</g>
<defs>
<clipPath id="clip0_614_10731">
<rect width="52.2" height="52.2" fill="white" transform="translate(0.891357 0.797363)"/>
</clipPath>
</defs>
</svg>
