<svg width="80" height="80" viewBox="0 0 80 80" fill="none" xmlns="http://www.w3.org/2000/svg">
<g clip-path="url(#clip0_471_1292)">
<path d="M26.6666 16.6667H19.9999C18.2318 16.6667 16.5361 17.3691 15.2859 18.6193C14.0356 19.8696 13.3333 21.5652 13.3333 23.3334V63.3334C13.3333 65.1015 14.0356 66.7972 15.2859 68.0474C16.5361 69.2976 18.2318 70 19.9999 70H38.9899" stroke="white" stroke-width="4.34996" stroke-linecap="round" stroke-linejoin="round"/>
<path d="M59.9999 46.6667V60H73.3333" stroke="white" stroke-width="4.34996" stroke-linecap="round" stroke-linejoin="round"/>
<path d="M59.9999 36.6667V23.3334C59.9999 21.5652 59.2975 19.8696 58.0473 18.6193C56.7971 17.3691 55.1014 16.6667 53.3333 16.6667H46.6666" stroke="white" stroke-width="4.34996" stroke-linecap="round" stroke-linejoin="round"/>
<path d="M26.6666 16.6667C26.6666 14.8986 27.369 13.2029 28.6192 11.9526C29.8695 10.7024 31.5651 10 33.3333 10H39.9999C41.768 10 43.4637 10.7024 44.714 11.9526C45.9642 13.2029 46.6666 14.8986 46.6666 16.6667C46.6666 18.4348 45.9642 20.1305 44.714 21.3807C43.4637 22.631 41.768 23.3333 39.9999 23.3333H33.3333C31.5651 23.3333 29.8695 22.631 28.6192 21.3807C27.369 20.1305 26.6666 18.4348 26.6666 16.6667Z" stroke="white" stroke-width="4.34996" stroke-linecap="round" stroke-linejoin="round"/>
<path d="M46.6666 60C46.6666 63.5362 48.0713 66.9276 50.5718 69.4281C53.0723 71.9286 56.4637 73.3334 59.9999 73.3334C63.5361 73.3334 66.9275 71.9286 69.428 69.4281C71.9285 66.9276 73.3333 63.5362 73.3333 60C73.3333 56.4638 71.9285 53.0724 69.428 50.5719C66.9275 48.0714 63.5361 46.6667 59.9999 46.6667C56.4637 46.6667 53.0723 48.0714 50.5718 50.5719C48.0713 53.0724 46.6666 56.4638 46.6666 60Z" stroke="white" stroke-width="4.34996" stroke-linecap="round" stroke-linejoin="round"/>
<path d="M26.6666 36.6667H39.9999" stroke="white" stroke-width="4.34996" stroke-linecap="round" stroke-linejoin="round"/>
<path d="M26.6666 50H36.6666" stroke="white" stroke-width="4.34996" stroke-linecap="round" stroke-linejoin="round"/>
</g>
<defs>
<clipPath id="clip0_471_1292">
<rect width="80" height="80" fill="white"/>
</clipPath>
</defs>
</svg>
