<svg width="80" height="80" viewBox="0 0 80 80" fill="none" xmlns="http://www.w3.org/2000/svg">
<g clip-path="url(#clip0_471_1278)">
<path d="M9.99992 70H69.9999" stroke="white" stroke-width="4.34996" stroke-linecap="round" stroke-linejoin="round"/>
<path d="M9.99992 23.3333V26.6667C9.99992 29.3188 11.0535 31.8624 12.9289 33.7377C14.8042 35.6131 17.3478 36.6667 19.9999 36.6667C22.6521 36.6667 25.1956 35.6131 27.071 33.7377C28.9464 31.8624 29.9999 29.3188 29.9999 26.6667M9.99992 23.3333H69.9999M9.99992 23.3333L16.6666 10H63.3333L69.9999 23.3333M29.9999 26.6667V23.3333M29.9999 26.6667C29.9999 29.3188 31.0535 31.8624 32.9289 33.7377C34.8042 35.6131 37.3478 36.6667 39.9999 36.6667C42.6521 36.6667 45.1956 35.6131 47.071 33.7377C48.9464 31.8624 49.9999 29.3188 49.9999 26.6667M49.9999 26.6667V23.3333M49.9999 26.6667C49.9999 29.3188 51.0535 31.8624 52.9289 33.7377C54.8042 35.6131 57.3478 36.6667 59.9999 36.6667C62.6521 36.6667 65.1956 35.6131 67.071 33.7377C68.9464 31.8624 69.9999 29.3188 69.9999 26.6667V23.3333" stroke="white" stroke-width="4.34996" stroke-linecap="round" stroke-linejoin="round"/>
<path d="M16.6666 70V36.1667" stroke="white" stroke-width="4.34996" stroke-linecap="round" stroke-linejoin="round"/>
<path d="M63.3333 70V36.1667" stroke="white" stroke-width="4.34996" stroke-linecap="round" stroke-linejoin="round"/>
<path d="M29.9999 70V56.6667C29.9999 54.8986 30.7023 53.2029 31.9525 51.9526C33.2028 50.7024 34.8985 50 36.6666 50H43.3333C45.1014 50 46.7971 50.7024 48.0473 51.9526C49.2975 53.2029 49.9999 54.8986 49.9999 56.6667V70" stroke="white" stroke-width="4.34996" stroke-linecap="round" stroke-linejoin="round"/>
</g>
<defs>
<clipPath id="clip0_471_1278">
<rect width="80" height="80" fill="white"/>
</clipPath>
</defs>
</svg>
