<svg width="80" height="80" viewBox="0 0 80 80" fill="none" xmlns="http://www.w3.org/2000/svg">
  <g clip-path="url(#clip0_471_1406)">
    <path d="M63.3333 53.4999V43.3333C63.3333 41.5652 62.6309 39.8695 61.3807 38.6192C60.1305 37.369 58.4348 36.6666 56.6667 36.6666H23.3333C21.5652 36.6666 19.8695 37.369 18.6193 38.6192C17.369 39.8695 16.6667 41.5652 16.6667 43.3333V63.3333C16.6667 65.1014 17.369 66.7971 18.6193 68.0473C19.8695 69.2976 21.5652 70 23.3333 70H48.0002" stroke="#ff460f" stroke-width="4" stroke-linecap="round" stroke-linejoin="round"/>
    <path d="M26.6667 36.6667V23.3333C26.6667 19.7971 28.0714 16.4057 30.5719 13.9052C33.0724 11.4048 36.4638 10 40 10C43.5362 10 46.9276 11.4048 49.4281 13.9052C51.9286 16.4057 53.3333 19.7971 53.3333 23.3333V36.6667" stroke="#ff460f" stroke-width="4" stroke-linecap="round" stroke-linejoin="round"/>
    <path d="M50 53.3334H50.0333" stroke="#ff460f" stroke-width="4" stroke-linecap="round" stroke-linejoin="round"/>
    <path d="M40.0333 53.3334H40.0667" stroke="#ff460f" stroke-width="4" stroke-linecap="round" stroke-linejoin="round"/>
    <path d="M30.0667 53.3334H30.1" stroke="#ff460f" stroke-width="4" stroke-linecap="round" stroke-linejoin="round"/>
    <path d="M53 64L58 69L68 59" stroke="#ff460f" stroke-width="4" stroke-linecap="round" stroke-linejoin="round"/>
  </g>
  <defs>
    <clipPath id="clip0_471_1406">
      <rect width="80" height="80" fill="white"/>
    </clipPath>
  </defs>
</svg>
