<svg width="53" height="53" viewBox="0 0 53 53" fill="none" xmlns="http://www.w3.org/2000/svg">
  <g clip-path="url(#clip0_471_962)">
    <path d="M31.0304 7.84566C29.571 6.8705 27.8552 6.35 26.0999 6.34998L31.0304 7.84566ZM31.0304 7.84566C32.4899 8.82085 33.6274 10.2069 34.2991 11.8286M31.0304 7.84566L34.2991 11.8286M34.2991 11.8286C34.9709 13.4503 35.1466 15.2347 34.8042 16.9563M34.2991 11.8286L34.8042 16.9563M34.8042 16.9563C34.4617 18.6778 33.6165 20.2592 32.3753 21.5004M34.8042 16.9563L32.3753 21.5004M32.3753 21.5004C31.1341 22.7415 29.5528 23.5868 27.8312 23.9292M32.3753 21.5004L27.8312 23.9292M27.8312 23.9292C26.1097 24.2717 24.3252 24.0959 22.7035 23.4242M27.8312 23.9292L22.7035 23.4242M22.7035 23.4242C21.0819 22.7525 19.6958 21.615 18.7206 20.1555M22.7035 23.4242L18.7206 20.1555M18.7206 20.1555C17.7495 18.7021 17.2292 16.9944 17.2249 15.2467M18.7206 20.1555L17.2249 15.2467M17.2249 15.2467L17.2348 14.8204C17.3387 12.5427 18.3153 10.3921 19.9624 8.81482C21.6142 7.23313 23.8129 6.35014 26.0998 6.34998L17.2249 15.2467Z" stroke="#ff460f" stroke-width="4"/>
    <path d="M30.4497 32.4497C32.8035 32.4497 35.0609 33.3847 36.7252 35.0491C38.3896 36.7135 39.3246 38.9708 39.3246 41.3246V43.4996C39.3246 44.1228 39.0771 44.7206 38.6364 45.1613C38.1957 45.602 37.5979 45.8495 36.9747 45.8495H15.2249C14.6017 45.8495 14.0039 45.602 13.5632 45.1613C13.1225 44.7206 12.8749 44.1228 12.8749 43.4996V41.3246C12.8749 38.9708 13.81 36.7135 15.4743 35.0491C17.1387 33.3847 19.3961 32.4497 21.7498 32.4497H30.4497Z" stroke="#ff460f" stroke-width="4"/>
  </g>
  <defs>
    <clipPath id="clip0_471_962">
      <rect width="52.1995" height="52.1995" fill="white"/>
    </clipPath>
  </defs>
</svg>
