<svg width="80" height="80" viewBox="0 0 80 80" fill="none" xmlns="http://www.w3.org/2000/svg">
<g clip-path="url(#clip0_471_1274)">
<path d="M48.1484 11.1385C45.7365 9.52689 42.9009 8.66671 40.0002 8.66669L48.1484 11.1385ZM48.1484 11.1385C50.5604 12.7501 52.4402 15.0407 53.5503 17.7207M48.1484 11.1385L53.5503 17.7207M53.5503 17.7207C54.6604 20.4006 54.9508 23.3496 54.3849 26.1947M53.5503 17.7207L54.3849 26.1947M54.3849 26.1947C53.819 29.0397 52.4221 31.6531 50.371 33.7043M54.3849 26.1947L50.371 33.7043M50.371 33.7043C48.3198 35.7554 45.7064 37.1523 42.8614 37.7182M50.371 33.7043L42.8614 37.7182M42.8614 37.7182C40.0163 38.2841 37.0674 37.9937 34.3874 36.8836M42.8614 37.7182L34.3874 36.8836M34.3874 36.8836C31.7074 35.7735 29.4168 33.8936 27.8052 31.4817M34.3874 36.8836L27.8052 31.4817M27.8052 31.4817C26.1977 29.076 25.3378 26.2487 25.3334 23.3557M27.8052 31.4817L25.3334 23.3557M25.3334 23.3557L25.3491 22.6771C25.5178 18.9085 27.1323 15.3495 29.8574 12.7401C32.5872 10.1262 36.2206 8.66694 40.0001 8.66669L25.3334 23.3557Z" stroke="white" stroke-width="4"/>
<path d="M46.6667 48.6667C50.5566 48.6667 54.2871 50.2119 57.0376 52.9625C59.7882 55.713 61.3334 59.4435 61.3334 63.3334V66.6667C61.3334 67.9044 60.8417 69.0913 59.9666 69.9665C59.0914 70.8417 57.9044 71.3334 56.6667 71.3334H23.3334C22.0957 71.3334 20.9087 70.8417 20.0336 69.9665C19.1584 69.0913 18.6667 67.9044 18.6667 66.6667V63.3334C18.6667 59.4435 20.212 55.713 22.9625 52.9625C25.713 50.2119 29.4436 48.6667 33.3334 48.6667H46.6667Z" stroke="white" stroke-width="4"/>
</g>
<defs>
<clipPath id="clip0_471_1274">
<rect width="80" height="80" fill="white"/>
</clipPath>
</defs>
</svg>
