<svg width="621" height="165" viewBox="0 0 621 165" fill="none" xmlns="http://www.w3.org/2000/svg">
<g clip-path="url(#clip0_660_81)">
<mask id="mask0_660_81" style="mask-type:luminance" maskUnits="userSpaceOnUse" x="0" y="0" width="621" height="159">
<path d="M621 0H0V159H621V0Z" fill="white"/>
</mask>
<g mask="url(#mask0_660_81)">
<path d="M547.685 74.4584V70.9903H540.524V98.5027H549.055V82.8312C549.023 82.1293 549.133 81.4282 549.379 80.77C549.625 80.1118 550.001 79.5099 550.485 79.0005C550.967 78.5164 551.543 78.1371 552.178 77.8864C552.813 77.6356 553.493 77.5189 554.175 77.5435C554.864 77.5067 555.553 77.6177 556.196 77.869C556.838 78.1203 557.419 78.5061 557.9 79.0005C558.836 80.052 559.326 81.4253 559.269 82.8312V98.5027H567.813V82.2224C567.813 78.6972 566.756 75.8333 564.643 73.6307C563.57 72.5285 562.276 71.6646 560.847 71.0953C559.417 70.526 557.883 70.2642 556.346 70.3268C554.682 70.2801 553.03 70.6277 551.526 71.341C550.022 72.0544 548.708 73.1132 547.692 74.431M515.673 89.8495C514.456 88.4167 513.788 86.5985 513.788 84.7191C513.788 82.8398 514.456 81.0216 515.673 79.5888C516.284 78.9162 517.034 78.3843 517.871 78.0299C518.708 77.6756 519.612 77.5072 520.52 77.5366C521.412 77.5092 522.299 77.6692 523.124 78.0062C523.95 78.3432 524.695 78.8497 525.312 79.493C526.542 80.9481 527.216 82.7909 527.216 84.6952C527.216 86.5994 526.542 88.4422 525.312 89.8974C524.695 90.5406 523.95 91.0472 523.124 91.3842C522.299 91.7212 521.412 91.8812 520.52 91.8537C519.612 91.8831 518.708 91.7148 517.871 91.3605C517.034 91.0061 516.284 90.4742 515.673 89.8016M528.243 73.7196C525.605 71.3639 522.158 70.1194 518.623 70.247C515.088 70.3745 511.739 71.8641 509.279 74.4037C506.763 77.2303 505.373 80.8815 505.373 84.6644C505.373 88.4473 506.763 92.0985 509.279 94.9251C510.53 96.3029 512.062 97.3964 513.772 98.1316C515.483 98.8668 517.331 99.2266 519.192 99.1867C522.559 99.2228 525.806 97.9384 528.236 95.6092V98.5027H535.232V70.9903H528.236L528.243 73.7196ZM481.443 74.219C479.421 71.5695 476.518 70.247 472.735 70.2515C471.07 70.2049 469.419 70.5524 467.915 71.2658C466.411 71.9791 465.097 73.038 464.081 74.3558V70.8877H456.913V98.5027H465.457V82.8312C465.392 81.424 465.884 80.0478 466.827 79.0005C467.296 78.5155 467.862 78.135 468.488 77.8839C469.115 77.6329 469.787 77.5168 470.462 77.5435C471.119 77.5079 471.775 77.6177 472.384 77.8648C472.994 78.1119 473.541 78.4904 473.987 78.9731C474.879 80.055 475.334 81.4313 475.261 82.8312V98.5027H483.812V82.8312C483.775 82.1339 483.878 81.4365 484.113 80.779C484.348 80.1215 484.711 79.5171 485.181 79.0005C485.656 78.5155 486.227 78.1353 486.858 77.8843C487.488 77.6334 488.165 77.5172 488.843 77.5435C489.492 77.5109 490.139 77.6222 490.739 77.8694C491.34 78.1166 491.877 78.4935 492.314 78.9731C493.206 80.055 493.661 81.4313 493.588 82.8312V98.5027H502.159V82.2224C502.159 78.6243 501.114 75.7421 499.024 73.576C496.933 71.4098 494.177 70.3268 490.754 70.3268C489.005 70.2667 487.264 70.5908 485.654 71.2764C484.044 71.9619 482.604 72.9921 481.436 74.2942M449.944 96.9567C450.935 96.285 451.742 95.3759 452.291 94.3124C452.84 93.249 453.113 92.065 453.086 90.8687C453.086 88.4472 452.402 86.5866 451.033 85.28C449.221 83.72 447.13 82.5156 444.871 81.7298C444.536 81.5793 444.084 81.4083 443.502 81.2031L442.256 80.7174C441.962 80.608 441.612 80.4712 441.208 80.3002C440.893 80.1799 440.589 80.0335 440.298 79.8624C440.099 79.7324 439.887 79.5888 439.668 79.4246C439.475 79.2849 439.314 79.1053 439.196 78.8979C439.105 78.7103 439.058 78.5044 439.059 78.2959C439.06 78.0143 439.137 77.7381 439.283 77.4971C439.429 77.2562 439.638 77.0594 439.887 76.9278C440.54 76.5535 441.285 76.3732 442.037 76.4079C443.295 76.4242 444.538 76.6909 445.693 77.1924C446.847 77.6939 447.889 78.4202 448.76 79.3288H449.369L453.114 75.3614V74.7526C451.912 73.2695 450.332 72.1376 448.541 71.476C446.474 70.6442 444.265 70.2236 442.037 70.2378C438.655 70.2378 435.962 70.9903 433.959 72.4952C432.996 73.1913 432.219 74.113 431.696 75.1793C431.173 76.2456 430.92 77.4238 430.96 78.6106C430.942 79.6373 431.157 80.6548 431.59 81.5862C431.962 82.3896 432.466 83.1249 433.082 83.7615C433.794 84.4275 434.602 84.9832 435.478 85.41C436.323 85.8619 437.197 86.2573 438.094 86.5934C438.812 86.8534 439.757 87.168 440.935 87.5306C441.886 87.8589 442.598 88.1257 443.057 88.3309C443.562 88.5546 444.025 88.8622 444.426 89.2407C444.637 89.4155 444.807 89.6338 444.925 89.8806C445.043 90.1274 445.107 90.3968 445.111 90.6703C445.106 90.9838 445.019 91.2905 444.86 91.5604C444.7 91.8302 444.473 92.0539 444.2 92.2094C443.481 92.6478 442.646 92.8599 441.804 92.8183C440.26 92.8009 438.738 92.4533 437.341 91.799C435.991 91.237 434.785 90.3818 433.808 89.2954H433.206L429.399 93.5365V94.1385C430.796 95.7896 432.588 97.0604 434.609 97.8323C436.875 98.755 439.302 99.2199 441.749 99.2004C445.163 99.2004 447.918 98.4388 450.013 96.9157M406.8 89.8358C405.588 88.4006 404.923 86.5833 404.923 84.7054C404.923 82.8276 405.588 81.0103 406.8 79.5751C407.412 78.9023 408.163 78.3704 409.001 78.0161C409.84 77.6617 410.745 77.4935 411.654 77.5229C412.546 77.4947 413.433 77.6542 414.259 77.9913C415.084 78.3284 415.83 78.8354 416.446 79.4793C417.676 80.9344 418.35 82.7773 418.35 84.6815C418.35 86.5857 417.676 88.4286 416.446 89.8837C415.83 90.5276 415.084 91.0346 414.259 91.3717C413.433 91.7088 412.546 91.8684 411.654 91.8401C410.745 91.8695 409.84 91.7013 409.001 91.347C408.163 90.9926 407.412 90.4607 406.8 89.7879M419.37 73.706C416.732 71.3502 413.285 70.1058 409.75 70.2333C406.215 70.3608 402.866 71.8504 400.406 74.39C397.894 77.2186 396.507 80.8691 396.507 84.6507C396.507 88.4324 397.894 92.0828 400.406 94.9114C401.654 96.2845 403.181 97.3761 404.884 98.1133C406.588 98.8505 408.429 99.2164 410.285 99.1867C413.65 99.2218 416.894 97.9373 419.322 95.6092V98.5027H426.318V70.9903H419.322L419.37 73.706ZM399.92 69.7727V62.727H368.777V69.7727H380.025V98.5027H388.679V69.7727H399.92ZM353.401 78.0839C354.36 79.0949 354.962 80.3925 355.112 81.7777H342.789C342.942 80.2569 343.649 78.8451 344.775 77.8102C345.931 76.7999 347.43 76.2689 348.965 76.3259C349.782 76.2902 350.598 76.4285 351.358 76.7316C352.118 77.0347 352.805 77.4956 353.373 78.0839M363.348 84.4181C363.414 82.5244 363.092 80.6373 362.4 78.8727C361.709 77.1081 360.664 75.5035 359.33 74.1574C357.978 72.875 356.386 71.8735 354.644 71.2112C352.902 70.5489 351.046 70.239 349.184 70.2994C344.884 70.2994 341.356 71.6675 338.6 74.4037C337.24 75.7616 336.175 77.3839 335.468 79.17C334.762 80.956 334.429 82.868 334.492 84.7875C334.492 89.0423 335.934 92.5013 338.819 95.1645C341.703 97.8278 345.332 99.1594 349.704 99.1594C352.055 99.1574 354.387 98.7381 356.591 97.9212C358.715 97.1606 360.603 95.859 362.068 94.1453V93.4613L358.268 89.8221H357.659C355.751 91.8469 353.216 92.857 350.053 92.8525C348.243 92.9097 346.469 92.3366 345.035 91.2313C344.345 90.6592 343.783 89.9491 343.384 89.1468C342.986 88.3445 342.76 87.4677 342.721 86.5729H363.17C363.285 85.8444 363.34 85.1077 363.334 84.3703M311.085 74.4037V70.9356H303.965V98.5027H312.509V82.8312C312.479 82.1289 312.59 81.4276 312.837 80.7694C313.084 80.1112 313.462 79.5096 313.947 79.0005C314.428 78.5161 315.004 78.1366 315.639 77.8858C316.274 77.635 316.955 77.5185 317.637 77.5435C318.325 77.505 319.013 77.6152 319.655 77.8667C320.296 78.1181 320.876 78.5048 321.354 79.0005C322.293 80.0505 322.784 81.4248 322.724 82.8312V98.5027H331.268V82.2224C331.268 78.6972 330.211 75.8333 328.098 73.6307C327.025 72.5285 325.731 71.6646 324.301 71.0953C322.872 70.526 321.338 70.2642 319.8 70.3268C318.136 70.2796 316.484 70.6269 314.98 71.3403C313.476 72.0536 312.163 73.1128 311.147 74.431M298.632 70.9629H290.13V98.5027H298.612L298.632 70.9629ZM284.728 98.5027V61.3521L284.119 60.969L276.239 61.8446V98.5027H284.728ZM251.107 74.4379V70.9698H243.939V98.5027H252.483V82.8312C252.453 82.1295 252.564 81.4288 252.81 80.7708C253.055 80.1128 253.431 79.5108 253.914 79.0005C254.396 78.5163 254.974 78.1369 255.61 77.8861C256.246 77.6354 256.927 77.5188 257.611 77.5435C258.299 77.505 258.987 77.6152 259.629 77.8667C260.27 78.1181 260.85 78.5048 261.328 79.0005C262.266 80.0505 262.758 81.4248 262.697 82.8312V98.5027H271.241V82.2224C271.241 78.6972 270.185 75.8333 268.071 73.6307C266.999 72.5294 265.707 71.666 264.278 71.0967C262.85 70.5275 261.317 70.2651 259.781 70.3268C258.117 70.2796 256.465 70.6269 254.961 71.3403C253.457 72.0536 252.143 73.1128 251.127 74.431M219.074 89.8768C217.857 88.444 217.189 86.6258 217.189 84.7465C217.189 82.8672 217.857 81.0489 219.074 79.6161C219.686 78.9433 220.437 78.4114 221.275 78.0571C222.113 77.7028 223.019 77.5345 223.928 77.564C224.82 77.5357 225.707 77.6953 226.533 78.0323C227.358 78.3694 228.104 78.8764 228.72 79.5204C229.95 80.9755 230.624 82.8183 230.624 84.7225C230.624 86.6268 229.95 88.4696 228.72 89.9247C228.104 90.5687 227.358 91.0757 226.533 91.4127C225.707 91.7498 224.82 91.9094 223.928 91.8811C223.019 91.9106 222.113 91.7423 221.275 91.388C220.437 91.0337 219.686 90.5017 219.074 89.829M231.644 73.747C229.006 71.3913 225.559 70.1468 222.024 70.2743C218.489 70.4018 215.14 71.8915 212.68 74.431C210.168 77.2597 208.781 80.9101 208.781 84.6918C208.781 88.4734 210.168 92.1239 212.68 94.9525C213.935 96.3271 215.47 97.4165 217.183 98.147C218.896 98.8774 220.745 99.232 222.607 99.1867C225.974 99.2228 229.221 97.9384 231.65 95.6092V98.5027H238.647V70.9903H231.65L231.644 73.747ZM197.085 78.0428C198.045 79.0528 198.644 80.3513 198.789 81.7367H186.507C186.66 80.2158 187.367 78.804 188.493 77.7692C189.649 76.7588 191.148 76.2279 192.683 76.2848C193.5 76.2492 194.316 76.3875 195.076 76.6905C195.836 76.9936 196.523 77.4545 197.091 78.0428M207.066 84.3771C207.132 82.4827 206.809 80.5949 206.117 78.8302C205.425 77.0654 204.378 75.4612 203.041 74.1164C201.691 72.8341 200.099 71.8328 198.359 71.1705C196.618 70.5081 194.763 70.1981 192.902 70.2584C188.602 70.2584 185.074 71.6265 182.318 74.3626C180.959 75.7208 179.893 77.3431 179.187 79.1291C178.48 80.9152 178.148 82.827 178.21 84.7465C178.21 89.0013 179.652 92.4603 182.537 95.1235C185.421 97.7867 189.05 99.1183 193.422 99.1183C195.775 99.116 198.109 98.6968 200.316 97.8802C202.452 97.1248 204.352 95.8229 205.827 94.1043V93.4202L202.021 89.7811H201.418C200.438 90.7959 199.253 91.5908 197.941 92.1133C196.63 92.6357 195.222 92.8737 193.812 92.8114C192.002 92.8686 190.228 92.2956 188.794 91.1902C188.103 90.619 187.54 89.9091 187.142 89.1066C186.743 88.3042 186.518 87.427 186.48 86.5319H206.929C207.044 85.8034 207.099 85.0667 207.094 84.3292M174.575 98.5027V61.3521L173.965 60.969L166.086 61.8446V98.5027H174.575ZM156.522 97.2919C159.055 96.094 161.287 94.3431 163.053 92.1684V91.5664L157.761 87.1612H157.158C156.073 88.5205 154.687 89.6107 153.11 90.3464C151.533 91.0821 149.807 91.4435 148.067 91.4023C145.943 91.3481 143.88 90.6779 142.131 89.4731C140.381 88.2684 139.02 86.5812 138.213 84.6172C137.406 82.6531 137.188 80.497 137.586 78.4115C137.984 76.326 138.98 74.4011 140.454 72.8714C141.449 71.8722 142.637 71.0858 143.946 70.5601C145.254 70.0344 146.657 69.7805 148.067 69.8137C149.807 69.7709 151.534 70.1316 153.111 70.8674C154.688 71.6033 156.074 72.6943 157.158 74.0548H157.761L163.053 69.6496V69.0886C161.278 66.912 159.037 65.1612 156.494 63.9651C153.862 62.7146 150.981 62.0761 148.067 62.0977C142.549 62.0977 137.928 63.8671 134.203 67.4059C132.387 69.0938 130.949 71.1476 129.985 73.4315C129.021 75.7155 128.552 78.1778 128.61 80.6559C128.553 83.1269 129.021 85.5819 129.981 87.8597C130.942 90.1374 132.374 92.1863 134.183 93.8717C136.009 95.6193 138.163 96.9887 140.521 97.9009C142.88 98.8131 145.395 99.2501 147.923 99.1867C150.886 99.2241 153.818 98.583 156.494 97.3124" fill="white"/>
<path d="M298.858 64.0199C298.865 63.4291 298.753 62.8428 298.531 62.2953C298.309 61.7477 297.98 61.2498 297.563 60.8304C297.147 60.411 296.651 60.0784 296.104 59.8521C295.558 59.6258 294.972 59.5102 294.381 59.5121C293.794 59.5005 293.211 59.6106 292.669 59.8355C292.127 60.0603 291.638 60.3951 291.232 60.8186C290.815 61.2339 290.487 61.7293 290.267 62.2748C290.047 62.8202 289.939 63.4046 289.952 63.9926C289.943 64.5719 290.052 65.147 290.272 65.6832C290.492 66.2193 290.819 66.7053 291.232 67.1118C291.637 67.5363 292.126 67.8718 292.669 68.0967C293.211 68.3217 293.794 68.4312 294.381 68.4184C294.972 68.4296 295.559 68.3195 296.105 68.0947C296.651 67.87 297.146 67.5354 297.557 67.1118C297.977 66.7086 298.309 66.2238 298.534 65.6873C298.759 65.1509 298.872 64.5741 298.865 63.9926" fill="white"/>
<path d="M102.636 64.061C102.711 64.0397 102.776 63.9948 102.823 63.9331C102.869 63.8714 102.894 63.7962 102.894 63.7189C102.894 63.6416 102.869 63.5664 102.823 63.5047C102.776 63.443 102.711 63.3981 102.636 63.3769L80.633 50.7015C80.4563 50.6103 80.2602 50.5627 80.0613 50.5627C79.8624 50.5627 79.6664 50.6103 79.4897 50.7015L56.7608 63.8147C56.4458 63.9994 56.4458 64.2935 56.7608 64.4987L66.4069 70.0532C66.5833 70.1411 66.7779 70.1869 66.9751 70.1869C67.1723 70.1869 67.3668 70.1411 67.5433 70.0532L79.4897 63.158C79.6664 63.0668 79.8624 63.0192 80.0613 63.0192C80.2602 63.0192 80.4563 63.0668 80.633 63.158L92.1002 69.7727C92.2757 69.8639 92.4706 69.9115 92.6684 69.9115C92.8662 69.9115 93.0611 69.8639 93.2366 69.7727L102.636 64.061Z" fill="#FF460F"/>
<path d="M54.0086 69.3008C53.6937 69.1161 53.4404 69.3008 53.4404 69.6292V95.7666C53.4511 95.9638 53.5081 96.1558 53.6069 96.3269C53.7056 96.498 53.8432 96.6435 54.0086 96.7516L76.5596 109.749C76.8745 109.926 77.1278 109.783 77.1278 109.42V98.2702C77.1171 98.073 77.0601 97.8811 76.9613 97.7099C76.8626 97.5388 76.725 97.3933 76.5596 97.2852L64.8049 90.5063C64.6391 90.3986 64.5012 90.2531 64.4024 90.0819C64.3036 89.9107 64.2468 89.7186 64.2367 89.5212V75.8403C64.2259 75.6431 64.1689 75.4511 64.0702 75.28C63.9715 75.1089 63.8339 74.9634 63.6684 74.8553L54.0086 69.3008Z" fill="#FF460F"/>
<path d="M69.8299 86.3541C69.8401 86.5515 69.8969 86.7436 69.9956 86.9148C70.0944 87.086 70.2323 87.2314 70.3981 87.3391L79.5239 92.6063C79.7007 92.6975 79.8967 92.7451 80.0956 92.7451C80.2945 92.7451 80.4905 92.6975 80.6672 92.6063L89.793 87.3391C89.9597 87.2318 90.0987 87.0866 90.1986 86.9154C90.2985 86.7443 90.3566 86.5519 90.3681 86.3541V75.8266C90.3571 75.6277 90.2993 75.4342 90.1994 75.2619C90.0995 75.0895 89.9602 74.9432 89.793 74.8348L80.6672 69.5676C80.4894 69.4801 80.2938 69.4346 80.0956 69.4346C79.8973 69.4346 79.7018 69.4801 79.5239 69.5676L70.3981 74.8348C70.2318 74.9436 70.0936 75.0901 69.9948 75.2625C69.8961 75.4349 69.8396 75.6282 69.8299 75.8266V86.3541Z" fill="#FF460F"/>
<path d="M82.6868 109.639C82.6868 110.002 82.9401 110.145 83.255 109.967L106.114 96.779C106.278 96.6697 106.415 96.5239 106.514 96.3531C106.612 96.1822 106.67 95.9908 106.682 95.794V68.7604C106.682 68.3979 106.429 68.2542 106.121 68.4389L96.4474 74.3081C96.2821 74.4195 96.1447 74.5677 96.0462 74.7409C95.9476 74.9141 95.8905 75.1078 95.8792 75.3068V89.5623C95.869 89.7597 95.8122 89.9518 95.7134 90.123C95.6147 90.2942 95.4768 90.4396 95.311 90.5474L83.2482 97.5041C83.0826 97.6137 82.945 97.7605 82.8463 97.9327C82.7477 98.1049 82.6907 98.2978 82.68 98.496L82.6868 109.639Z" fill="#FF460F"/>
</g>
</g>
<path d="M75.9354 138.32V148.952C75.9354 150.216 76.2634 151.168 76.9194 151.808C77.5914 152.448 78.5194 152.768 79.7034 152.768C80.9034 152.768 81.8314 152.448 82.4874 151.808C83.1594 151.168 83.4954 150.216 83.4954 148.952V138.32H86.2314V148.904C86.2314 150.264 85.9354 151.416 85.3434 152.36C84.7514 153.304 83.9594 154.008 82.9674 154.472C81.9754 154.936 80.8794 155.168 79.6794 155.168C78.4794 155.168 77.3834 154.936 76.3914 154.472C75.4154 154.008 74.6394 153.304 74.0634 152.36C73.4874 151.416 73.1994 150.264 73.1994 148.904V138.32H75.9354ZM101.266 141.56C102.306 141.56 103.234 141.776 104.05 142.208C104.882 142.64 105.53 143.28 105.994 144.128C106.458 144.976 106.69 146 106.69 147.2V155H103.978V147.608C103.978 146.424 103.682 145.52 103.09 144.896C102.498 144.256 101.69 143.936 100.666 143.936C99.6417 143.936 98.8257 144.256 98.2177 144.896C97.6257 145.52 97.3297 146.424 97.3297 147.608V155H94.5937V141.776H97.3297V143.288C97.7777 142.744 98.3457 142.32 99.0337 142.016C99.7377 141.712 100.482 141.56 101.266 141.56ZM116.372 140.024C115.876 140.024 115.46 139.856 115.124 139.52C114.788 139.184 114.62 138.768 114.62 138.272C114.62 137.776 114.788 137.36 115.124 137.024C115.46 136.688 115.876 136.52 116.372 136.52C116.852 136.52 117.26 136.688 117.596 137.024C117.932 137.36 118.1 137.776 118.1 138.272C118.1 138.768 117.932 139.184 117.596 139.52C117.26 139.856 116.852 140.024 116.372 140.024ZM117.716 141.776V155H114.98V141.776H117.716ZM131.652 144.008H129.204V155H126.444V144.008H124.884V141.776H126.444V140.84C126.444 139.32 126.844 138.216 127.644 137.528C128.46 136.824 129.732 136.472 131.46 136.472V138.752C130.628 138.752 130.044 138.912 129.708 139.232C129.372 139.536 129.204 140.072 129.204 140.84V141.776H131.652V144.008ZM144.613 155.216C143.365 155.216 142.237 154.936 141.229 154.376C140.221 153.8 139.429 153 138.853 151.976C138.277 150.936 137.989 149.736 137.989 148.376C137.989 147.032 138.285 145.84 138.877 144.8C139.469 143.76 140.277 142.96 141.301 142.4C142.325 141.84 143.469 141.56 144.733 141.56C145.997 141.56 147.141 141.84 148.165 142.4C149.189 142.96 149.997 143.76 150.589 144.8C151.181 145.84 151.477 147.032 151.477 148.376C151.477 149.72 151.173 150.912 150.565 151.952C149.957 152.992 149.125 153.8 148.069 154.376C147.029 154.936 145.877 155.216 144.613 155.216ZM144.613 152.84C145.317 152.84 145.973 152.672 146.581 152.336C147.205 152 147.709 151.496 148.093 150.824C148.477 150.152 148.669 149.336 148.669 148.376C148.669 147.416 148.485 146.608 148.117 145.952C147.749 145.28 147.261 144.776 146.653 144.44C146.045 144.104 145.389 143.936 144.685 143.936C143.981 143.936 143.325 144.104 142.717 144.44C142.125 144.776 141.653 145.28 141.301 145.952C140.949 146.608 140.773 147.416 140.773 148.376C140.773 149.8 141.133 150.904 141.853 151.688C142.589 152.456 143.509 152.84 144.613 152.84ZM161.717 143.696C162.117 143.024 162.645 142.504 163.301 142.136C163.973 141.752 164.765 141.56 165.677 141.56V144.392H164.981C163.909 144.392 163.093 144.664 162.533 145.208C161.989 145.752 161.717 146.696 161.717 148.04V155H158.981V141.776H161.717V143.696ZM189 141.56C190.04 141.56 190.968 141.776 191.784 142.208C192.616 142.64 193.264 143.28 193.728 144.128C194.208 144.976 194.448 146 194.448 147.2V155H191.736V147.608C191.736 146.424 191.44 145.52 190.848 144.896C190.256 144.256 189.448 143.936 188.424 143.936C187.4 143.936 186.584 144.256 185.976 144.896C185.384 145.52 185.088 146.424 185.088 147.608V155H182.376V147.608C182.376 146.424 182.08 145.52 181.488 144.896C180.896 144.256 180.088 143.936 179.064 143.936C178.04 143.936 177.224 144.256 176.616 144.896C176.024 145.52 175.728 146.424 175.728 147.608V155H172.992V141.776H175.728V143.288C176.176 142.744 176.744 142.32 177.432 142.016C178.12 141.712 178.856 141.56 179.64 141.56C180.696 141.56 181.64 141.784 182.472 142.232C183.304 142.68 183.944 143.328 184.392 144.176C184.792 143.376 185.416 142.744 186.264 142.28C187.112 141.8 188.024 141.56 189 141.56ZM231.332 138.32V155H228.596V143.576L223.508 155H221.612L216.5 143.576V155H213.764V138.32H216.716L222.572 151.4L228.404 138.32H231.332ZM238.816 148.328C238.816 147 239.088 145.824 239.632 144.8C240.192 143.776 240.944 142.984 241.888 142.424C242.848 141.848 243.904 141.56 245.056 141.56C246.096 141.56 247 141.768 247.768 142.184C248.552 142.584 249.176 143.088 249.64 143.696V141.776H252.4V155H249.64V153.032C249.176 153.656 248.544 154.176 247.744 154.592C246.944 155.008 246.032 155.216 245.008 155.216C243.872 155.216 242.832 154.928 241.888 154.352C240.944 153.76 240.192 152.944 239.632 151.904C239.088 150.848 238.816 149.656 238.816 148.328ZM249.64 148.376C249.64 147.464 249.448 146.672 249.064 146C248.696 145.328 248.208 144.816 247.6 144.464C246.992 144.112 246.336 143.936 245.632 143.936C244.928 143.936 244.272 144.112 243.664 144.464C243.056 144.8 242.56 145.304 242.176 145.976C241.808 146.632 241.624 147.416 241.624 148.328C241.624 149.24 241.808 150.04 242.176 150.728C242.56 151.416 243.056 151.944 243.664 152.312C244.288 152.664 244.944 152.84 245.632 152.84C246.336 152.84 246.992 152.664 247.6 152.312C248.208 151.96 248.696 151.448 249.064 150.776C249.448 150.088 249.64 149.288 249.64 148.376ZM267.466 141.56C268.506 141.56 269.434 141.776 270.25 142.208C271.082 142.64 271.73 143.28 272.194 144.128C272.658 144.976 272.89 146 272.89 147.2V155H270.178V147.608C270.178 146.424 269.882 145.52 269.29 144.896C268.698 144.256 267.89 143.936 266.866 143.936C265.842 143.936 265.026 144.256 264.418 144.896C263.826 145.52 263.53 146.424 263.53 147.608V155H260.794V141.776H263.53V143.288C263.978 142.744 264.546 142.32 265.234 142.016C265.938 141.712 266.682 141.56 267.466 141.56ZM280.268 148.328C280.268 147 280.54 145.824 281.084 144.8C281.644 143.776 282.396 142.984 283.34 142.424C284.3 141.848 285.356 141.56 286.508 141.56C287.548 141.56 288.452 141.768 289.22 142.184C290.004 142.584 290.628 143.088 291.092 143.696V141.776H293.852V155H291.092V153.032C290.628 153.656 289.996 154.176 289.196 154.592C288.396 155.008 287.484 155.216 286.46 155.216C285.324 155.216 284.284 154.928 283.34 154.352C282.396 153.76 281.644 152.944 281.084 151.904C280.54 150.848 280.268 149.656 280.268 148.328ZM291.092 148.376C291.092 147.464 290.9 146.672 290.516 146C290.148 145.328 289.66 144.816 289.052 144.464C288.444 144.112 287.788 143.936 287.084 143.936C286.38 143.936 285.724 144.112 285.116 144.464C284.508 144.8 284.012 145.304 283.628 145.976C283.26 146.632 283.076 147.416 283.076 148.328C283.076 149.24 283.26 150.04 283.628 150.728C284.012 151.416 284.508 151.944 285.116 152.312C285.74 152.664 286.396 152.84 287.084 152.84C287.788 152.84 288.444 152.664 289.052 152.312C289.66 151.96 290.148 151.448 290.516 150.776C290.9 150.088 291.092 149.288 291.092 148.376ZM307.573 141.56C308.597 141.56 309.501 141.768 310.285 142.184C311.085 142.584 311.709 143.088 312.157 143.696V141.776H314.917V155.216C314.917 156.432 314.661 157.512 314.149 158.456C313.637 159.416 312.893 160.168 311.917 160.712C310.957 161.256 309.805 161.528 308.461 161.528C306.669 161.528 305.181 161.104 303.997 160.256C302.813 159.424 302.141 158.288 301.981 156.848H304.693C304.901 157.536 305.341 158.088 306.013 158.504C306.701 158.936 307.517 159.152 308.461 159.152C309.565 159.152 310.453 158.816 311.125 158.144C311.813 157.472 312.157 156.496 312.157 155.216V153.008C311.693 153.632 311.061 154.16 310.261 154.592C309.477 155.008 308.581 155.216 307.573 155.216C306.421 155.216 305.365 154.928 304.405 154.352C303.461 153.76 302.709 152.944 302.149 151.904C301.605 150.848 301.333 149.656 301.333 148.328C301.333 147 301.605 145.824 302.149 144.8C302.709 143.776 303.461 142.984 304.405 142.424C305.365 141.848 306.421 141.56 307.573 141.56ZM312.157 148.376C312.157 147.464 311.965 146.672 311.581 146C311.213 145.328 310.725 144.816 310.117 144.464C309.509 144.112 308.853 143.936 308.149 143.936C307.445 143.936 306.789 144.112 306.181 144.464C305.573 144.8 305.077 145.304 304.693 145.976C304.325 146.632 304.141 147.416 304.141 148.328C304.141 149.24 304.325 150.04 304.693 150.728C305.077 151.416 305.573 151.944 306.181 152.312C306.805 152.664 307.461 152.84 308.149 152.84C308.853 152.84 309.509 152.664 310.117 152.312C310.725 151.96 311.213 151.448 311.581 150.776C311.965 150.088 312.157 149.288 312.157 148.376ZM335.431 148.064C335.431 148.56 335.399 149.008 335.335 149.408H325.231C325.311 150.464 325.703 151.312 326.407 151.952C327.111 152.592 327.975 152.912 328.999 152.912C330.471 152.912 331.511 152.296 332.119 151.064H335.071C334.671 152.28 333.943 153.28 332.887 154.064C331.847 154.832 330.551 155.216 328.999 155.216C327.735 155.216 326.599 154.936 325.591 154.376C324.599 153.8 323.815 153 323.239 151.976C322.679 150.936 322.399 149.736 322.399 148.376C322.399 147.016 322.671 145.824 323.215 144.8C323.775 143.76 324.551 142.96 325.543 142.4C326.551 141.84 327.703 141.56 328.999 141.56C330.247 141.56 331.359 141.832 332.335 142.376C333.311 142.92 334.071 143.688 334.615 144.68C335.159 145.656 335.431 146.784 335.431 148.064ZM332.575 147.2C332.559 146.192 332.199 145.384 331.495 144.776C330.791 144.168 329.919 143.864 328.879 143.864C327.935 143.864 327.127 144.168 326.455 144.776C325.783 145.368 325.383 146.176 325.255 147.2H332.575ZM358.931 141.56C359.971 141.56 360.899 141.776 361.715 142.208C362.547 142.64 363.195 143.28 363.659 144.128C364.139 144.976 364.379 146 364.379 147.2V155H361.667V147.608C361.667 146.424 361.371 145.52 360.779 144.896C360.187 144.256 359.379 143.936 358.355 143.936C357.331 143.936 356.515 144.256 355.907 144.896C355.315 145.52 355.019 146.424 355.019 147.608V155H352.307V147.608C352.307 146.424 352.011 145.52 351.419 144.896C350.827 144.256 350.019 143.936 348.995 143.936C347.971 143.936 347.155 144.256 346.547 144.896C345.955 145.52 345.659 146.424 345.659 147.608V155H342.923V141.776H345.659V143.288C346.107 142.744 346.675 142.32 347.363 142.016C348.051 141.712 348.787 141.56 349.571 141.56C350.627 141.56 351.571 141.784 352.403 142.232C353.235 142.68 353.875 143.328 354.323 144.176C354.723 143.376 355.347 142.744 356.195 142.28C357.043 141.8 357.955 141.56 358.931 141.56ZM384.781 148.064C384.781 148.56 384.749 149.008 384.685 149.408H374.581C374.661 150.464 375.053 151.312 375.757 151.952C376.461 152.592 377.325 152.912 378.349 152.912C379.821 152.912 380.861 152.296 381.469 151.064H384.421C384.021 152.28 383.293 153.28 382.237 154.064C381.197 154.832 379.901 155.216 378.349 155.216C377.085 155.216 375.949 154.936 374.941 154.376C373.949 153.8 373.165 153 372.589 151.976C372.029 150.936 371.749 149.736 371.749 148.376C371.749 147.016 372.021 145.824 372.565 144.8C373.125 143.76 373.901 142.96 374.893 142.4C375.901 141.84 377.053 141.56 378.349 141.56C379.597 141.56 380.709 141.832 381.685 142.376C382.661 142.92 383.421 143.688 383.965 144.68C384.509 145.656 384.781 146.784 384.781 148.064ZM381.925 147.2C381.909 146.192 381.549 145.384 380.845 144.776C380.141 144.168 379.269 143.864 378.229 143.864C377.285 143.864 376.477 144.168 375.805 144.776C375.133 145.368 374.733 146.176 374.605 147.2H381.925ZM398.945 141.56C399.985 141.56 400.913 141.776 401.729 142.208C402.561 142.64 403.209 143.28 403.673 144.128C404.137 144.976 404.369 146 404.369 147.2V155H401.657V147.608C401.657 146.424 401.361 145.52 400.769 144.896C400.177 144.256 399.369 143.936 398.345 143.936C397.321 143.936 396.505 144.256 395.897 144.896C395.305 145.52 395.009 146.424 395.009 147.608V155H392.273V141.776H395.009V143.288C395.457 142.744 396.025 142.32 396.713 142.016C397.417 141.712 398.161 141.56 398.945 141.56ZM415.851 144.008V151.328C415.851 151.824 415.963 152.184 416.187 152.408C416.427 152.616 416.827 152.72 417.387 152.72H419.067V155H416.907C415.675 155 414.731 154.712 414.075 154.136C413.419 153.56 413.091 152.624 413.091 151.328V144.008H411.531V141.776H413.091V138.488H415.851V141.776H419.067V144.008H415.851ZM442.919 155.168C441.799 155.168 440.791 154.976 439.895 154.592C438.999 154.192 438.295 153.632 437.783 152.912C437.271 152.192 437.015 151.352 437.015 150.392H439.943C440.007 151.112 440.287 151.704 440.783 152.168C441.295 152.632 442.007 152.864 442.919 152.864C443.863 152.864 444.599 152.64 445.127 152.192C445.655 151.728 445.919 151.136 445.919 150.416C445.919 149.856 445.751 149.4 445.415 149.048C445.095 148.696 444.687 148.424 444.191 148.232C443.711 148.04 443.039 147.832 442.175 147.608C441.087 147.32 440.199 147.032 439.511 146.744C438.839 146.44 438.263 145.976 437.783 145.352C437.303 144.728 437.063 143.896 437.063 142.856C437.063 141.896 437.303 141.056 437.783 140.336C438.263 139.616 438.935 139.064 439.799 138.68C440.663 138.296 441.663 138.104 442.799 138.104C444.415 138.104 445.735 138.512 446.759 139.328C447.799 140.128 448.375 141.232 448.487 142.64H445.463C445.415 142.032 445.127 141.512 444.599 141.08C444.071 140.648 443.375 140.432 442.511 140.432C441.727 140.432 441.087 140.632 440.591 141.032C440.095 141.432 439.847 142.008 439.847 142.76C439.847 143.272 439.999 143.696 440.303 144.032C440.623 144.352 441.023 144.608 441.503 144.8C441.983 144.992 442.639 145.2 443.471 145.424C444.575 145.728 445.471 146.032 446.159 146.336C446.863 146.64 447.455 147.112 447.935 147.752C448.431 148.376 448.679 149.216 448.679 150.272C448.679 151.12 448.447 151.92 447.983 152.672C447.535 153.424 446.871 154.032 445.991 154.496C445.127 154.944 444.103 155.168 442.919 155.168ZM468.612 141.776L460.5 161.216H457.668L460.356 154.784L455.148 141.776H458.196L461.916 151.856L465.78 141.776H468.612ZM480.277 155.216C479.237 155.216 478.301 155.032 477.469 154.664C476.653 154.28 476.005 153.768 475.525 153.128C475.045 152.472 474.789 151.744 474.757 150.944H477.589C477.637 151.504 477.901 151.976 478.381 152.36C478.877 152.728 479.493 152.912 480.229 152.912C480.997 152.912 481.589 152.768 482.005 152.48C482.437 152.176 482.653 151.792 482.653 151.328C482.653 150.832 482.413 150.464 481.933 150.224C481.469 149.984 480.725 149.72 479.701 149.432C478.709 149.16 477.901 148.896 477.277 148.64C476.653 148.384 476.109 147.992 475.645 147.464C475.197 146.936 474.973 146.24 474.973 145.376C474.973 144.672 475.181 144.032 475.597 143.456C476.013 142.864 476.605 142.4 477.373 142.064C478.157 141.728 479.053 141.56 480.061 141.56C481.565 141.56 482.773 141.944 483.685 142.712C484.613 143.464 485.109 144.496 485.173 145.808H482.437C482.389 145.216 482.149 144.744 481.717 144.392C481.285 144.04 480.701 143.864 479.965 143.864C479.245 143.864 478.693 144 478.309 144.272C477.925 144.544 477.733 144.904 477.733 145.352C477.733 145.704 477.861 146 478.117 146.24C478.373 146.48 478.685 146.672 479.053 146.816C479.421 146.944 479.965 147.112 480.685 147.32C481.645 147.576 482.429 147.84 483.037 148.112C483.661 148.368 484.197 148.752 484.645 149.264C485.093 149.776 485.325 150.456 485.341 151.304C485.341 152.056 485.133 152.728 484.717 153.32C484.301 153.912 483.709 154.376 482.941 154.712C482.189 155.048 481.301 155.216 480.277 155.216ZM496.289 144.008V151.328C496.289 151.824 496.401 152.184 496.625 152.408C496.865 152.616 497.265 152.72 497.825 152.72H499.505V155H497.345C496.113 155 495.169 154.712 494.513 154.136C493.857 153.56 493.529 152.624 493.529 151.328V144.008H491.969V141.776H493.529V138.488H496.289V141.776H499.505V144.008H496.289ZM518.947 148.064C518.947 148.56 518.915 149.008 518.851 149.408H508.747C508.827 150.464 509.219 151.312 509.923 151.952C510.627 152.592 511.491 152.912 512.515 152.912C513.987 152.912 515.027 152.296 515.635 151.064H518.587C518.187 152.28 517.459 153.28 516.403 154.064C515.363 154.832 514.067 155.216 512.515 155.216C511.251 155.216 510.115 154.936 509.107 154.376C508.115 153.8 507.331 153 506.755 151.976C506.195 150.936 505.915 149.736 505.915 148.376C505.915 147.016 506.187 145.824 506.731 144.8C507.291 143.76 508.067 142.96 509.059 142.4C510.067 141.84 511.219 141.56 512.515 141.56C513.763 141.56 514.875 141.832 515.851 142.376C516.827 142.92 517.587 143.688 518.131 144.68C518.675 145.656 518.947 146.784 518.947 148.064ZM516.091 147.2C516.075 146.192 515.715 145.384 515.011 144.776C514.307 144.168 513.435 143.864 512.395 143.864C511.451 143.864 510.643 144.168 509.971 144.776C509.299 145.368 508.899 146.176 508.771 147.2H516.091ZM542.447 141.56C543.487 141.56 544.415 141.776 545.231 142.208C546.063 142.64 546.711 143.28 547.175 144.128C547.655 144.976 547.895 146 547.895 147.2V155H545.183V147.608C545.183 146.424 544.887 145.52 544.295 144.896C543.703 144.256 542.895 143.936 541.871 143.936C540.847 143.936 540.031 144.256 539.423 144.896C538.831 145.52 538.535 146.424 538.535 147.608V155H535.823V147.608C535.823 146.424 535.527 145.52 534.935 144.896C534.343 144.256 533.535 143.936 532.511 143.936C531.487 143.936 530.671 144.256 530.063 144.896C529.471 145.52 529.175 146.424 529.175 147.608V155H526.439V141.776H529.175V143.288C529.623 142.744 530.191 142.32 530.879 142.016C531.567 141.712 532.303 141.56 533.087 141.56C534.143 141.56 535.087 141.784 535.919 142.232C536.751 142.68 537.391 143.328 537.839 144.176C538.239 143.376 538.863 142.744 539.711 142.28C540.559 141.8 541.471 141.56 542.447 141.56Z" fill="white"/>
<defs>
<clipPath id="clip0_660_81">
<rect width="621" height="159" fill="white"/>
</clipPath>
</defs>
</svg>
